<svg width="312" height="165" viewBox="0 0 312 165" fill="none" xmlns="http://www.w3.org/2000/svg">
<path d="M269.585 81.1691C271.093 81.9524 272.676 82.8454 273.76 84.0766C276.398 87.0651 275.771 91.2061 272.236 93.6254L271.527 94.1011L272.038 96.1601C272.873 99.7243 267.878 100.963 266.997 97.41L266.727 96.32C265.545 96.6558 264.354 96.9512 263.168 97.0738C261.377 97.3037 259.68 96.7388 259.279 95.1238C258.939 93.7512 259.995 91.7323 261.796 91.5427C262.84 91.241 265.182 90.8748 266.817 90.2121C270.572 88.6811 267.461 86.924 265.395 85.8507C261.517 83.9411 257.871 81.2026 258.85 76.7171C259.115 75.2371 260.042 73.6787 261.36 72.3235C261.156 71.3028 260.935 70.4146 260.725 69.5668C259.844 66.014 264.839 64.7754 265.72 68.3282L265.96 69.2972C266.674 69.0346 267.453 68.8414 268.216 68.7808C270.027 68.6316 271.384 70.1807 271.312 71.6556C271.25 73.1709 269.98 74.1288 268.523 74.5328C267.479 74.8345 266.296 75.5564 265.657 76.3147C263.695 78.6013 267.778 80.16 269.585 81.1691Z" fill="black"/>
<path d="M240.601 76.851C241.956 78.3481 243.351 79.9989 244.048 81.8196C245.75 86.2421 243.336 90.5964 238.395 91.8279L237.408 92.0644L237.124 94.57C236.579 98.8871 230.5 98.1983 230.99 93.8748L231.14 92.5483C229.685 92.4331 228.235 92.2688 226.863 91.9143C224.772 91.4285 223.115 90.0963 223.338 88.1311C223.527 86.4607 225.54 84.6486 227.626 85.1835C228.914 85.2797 231.675 85.8413 233.771 85.7804C238.589 85.6297 235.851 82.3835 233.993 80.3318C230.463 76.5977 227.534 72.0362 230.484 67.4441C231.392 65.9049 233.07 64.5525 235.1 63.5883C235.295 62.3663 235.418 61.2855 235.534 60.2537C236.024 55.9303 242.103 56.6191 241.613 60.9426L241.479 62.1217C242.383 62.1246 243.331 62.232 244.206 62.4805C246.286 63.0646 247.157 65.3527 246.465 66.9662C245.769 68.6289 243.956 69.1699 242.166 69.0168C240.878 68.9206 239.261 69.235 238.235 69.8154C235.102 71.5502 239.006 74.9783 240.601 76.851Z" fill="black"/>
<path d="M78.3124 80.9269C79.5242 81.6776 80.7925 82.5249 81.6212 83.6235C83.6394 86.2908 82.8528 89.7157 79.7424 91.5162L79.1192 91.8694L79.4161 93.6244C79.8894 96.6591 75.632 97.3794 75.1197 94.3513L74.9625 93.4222C73.9528 93.6284 72.9373 93.8002 71.9375 93.8278C70.4242 93.9068 69.0404 93.3268 68.8075 91.9504C68.6096 90.7804 69.6208 89.1581 71.1399 89.1134C72.0324 88.927 74.0145 88.7687 75.4247 88.3177C78.6632 87.2743 76.1715 85.6075 74.5109 84.5788C71.3867 82.7358 68.5093 80.214 69.6124 76.5231C69.9281 75.3016 70.8022 74.0565 71.9904 73.0059C71.8839 72.139 71.7559 71.382 71.6336 70.6594C71.1213 67.6312 75.3786 66.9109 75.891 69.9391L76.0307 70.7649C76.644 70.5904 77.308 70.478 77.9504 70.4755C79.4754 70.4653 80.5127 71.8472 80.3591 73.0767C80.2113 74.3405 79.0879 75.0616 77.8438 75.3074C76.9513 75.4938 75.9159 76.023 75.3334 76.6171C73.5469 78.406 76.8646 79.9684 78.3124 80.9269Z" fill="black"/>
<path d="M19 112.779C32.7088 112.779 32.7088 126.202 46.4218 126.202C60.1348 126.202 60.1306 112.779 73.8436 112.779C87.5566 112.779 87.5566 126.202 101.265 126.202C114.974 126.202 114.978 112.779 128.687 112.779C142.396 112.779 142.396 126.202 156.109 126.202C169.822 126.202 169.822 112.779 183.531 112.779C197.24 112.779 197.244 126.202 210.953 126.202C224.661 126.202 224.661 112.779 238.374 112.779C252.087 112.779 252.087 126.202 265.796 126.202C279.505 126.202 279.509 112.779 293.218 112.779" stroke="black" stroke-width="9.51855" stroke-miterlimit="10" stroke-linecap="round"/>
<path d="M19 137.294C32.7088 137.294 32.7088 150.717 46.4218 150.717C60.1348 150.717 60.1306 137.294 73.8436 137.294C87.5566 137.294 87.5566 150.717 101.265 150.717C114.974 150.717 114.978 137.294 128.687 137.294C142.396 137.294 142.396 150.717 156.109 150.717C169.822 150.717 169.822 137.294 183.531 137.294C197.24 137.294 197.244 150.717 210.953 150.717C224.661 150.717 224.661 137.294 238.374 137.294C252.087 137.294 252.087 150.717 265.796 150.717C279.505 150.717 279.509 137.294 293.218 137.294" stroke="black" stroke-width="9.51855" stroke-miterlimit="10" stroke-linecap="round"/>
<path fill-rule="evenodd" clip-rule="evenodd" d="M182.374 8.60378C190.652 10.2726 197.624 14.905 202.362 21.8833C205.559 26.5929 207.071 30.8826 207.917 37.6445L208.58 42.9372L211.064 43.664C212.522 44.0905 214.533 44.2437 215.935 44.0346C217.791 43.7584 218.566 43.8999 219.414 44.6714C220.859 45.9841 220.832 49.4654 219.353 52.7421C218.542 54.5361 218.322 55.8315 218.574 57.3309C219.001 59.8679 218.557 61.4708 217.284 61.9829C214.821 62.973 209.845 64.0732 206.311 64.4081L202.414 64.7777L202.244 67.7497C202.132 69.7153 202.552 72.3664 203.483 75.5766C206.382 85.5682 206.66 93.5154 204.371 100.954C203.635 103.349 202.634 105.601 201.385 107.703C200.896 107.246 200.399 106.762 199.88 106.254L199.774 106.15C196.311 102.76 191.925 98.4649 183.528 98.4649C175.132 98.4649 170.747 102.759 167.285 106.149L167.178 106.254C163.801 109.56 161.334 111.888 156.107 111.888C150.879 111.888 148.412 109.56 145.035 106.254L144.928 106.149C141.466 102.759 137.081 98.4649 128.685 98.4649C120.288 98.4649 115.902 102.76 112.439 106.15L112.333 106.254C110.713 107.84 109.302 109.201 107.696 110.188C104.629 106.783 102.06 102.899 100.018 98.5514C96.1872 90.3947 94.7749 81.4306 95.7319 71.3478C97.1876 56.0098 102.281 46.6824 109.31 46.4817C111.111 46.4302 113.624 48.6441 113.624 50.2811C113.624 51.104 118.269 57.1995 119.41 57.8738C121.115 58.8818 127.742 60.6954 131.454 61.1706C135.687 61.7123 141.871 61.227 145.911 60.0368C149.439 58.9969 149.49 58.8538 147.634 55.1863C145.305 50.5819 144.259 45.6263 144.25 39.1411C144.235 29.6006 146.818 22.9589 152.912 16.8623C159.819 9.95225 172.052 6.52294 182.374 8.60378ZM180.207 41.1844C180.831 42.3337 181.412 43.4048 181.193 45L181.194 44.9978C181.189 45.0358 181.202 45.0705 181.232 45.0939C181.262 45.1186 181.298 45.1253 181.335 45.113C186.549 43.4039 188.083 39.7253 186.901 34.2649C186.89 34.2146 186.846 34.181 186.794 34.181C186.741 34.1822 186.698 34.2179 186.689 34.2683C186.218 36.7837 185.67 37.107 184.298 37.4235C184.264 37.4313 184.231 37.4235 184.204 37.4011C184.177 37.3787 184.164 37.3485 184.166 37.3139C184.448 32.8702 183.444 29.706 178.285 26.0162C178.252 25.9927 178.209 25.9894 178.172 26.0084C178.135 26.0274 178.114 26.0632 178.114 26.1046C178.172 28.6703 176.835 30.5281 175.287 32.1331C175.258 32.1633 175.218 32.1745 175.177 32.1622C175.136 32.1499 175.108 32.1186 175.101 32.0783C175.009 31.5291 174.976 30.7932 174.982 29.819C174.982 29.7698 174.95 29.7284 174.901 29.7161C174.852 29.7038 174.803 29.725 174.779 29.7687C174.575 30.1378 174.375 30.4965 174.18 30.846C170.941 36.6522 169.133 39.8935 176.171 45.1219C176.209 45.1499 176.258 45.151 176.297 45.1253C176.337 45.0995 176.354 45.0537 176.342 45.0089C175.073 40.4988 176.293 39.3189 177.514 38.1389C177.979 37.6899 178.443 37.2408 178.771 36.6081C178.795 36.5623 178.845 36.5399 178.895 36.5533C178.944 36.5667 178.979 36.6115 178.975 36.6618C178.861 38.707 179.557 39.988 180.207 41.1844Z" fill="black"/>
</svg>
