<svg width="217" height="112" viewBox="0 0 217 112" fill="none" xmlns="http://www.w3.org/2000/svg">
<rect x="55.7739" y="-3.05176e-05" width="78.8761" height="78.8761" rx="9.79776" transform="rotate(45 55.7739 -3.05176e-05)" fill="black"/>
<rect x="55.7739" y="4.4898" width="72.5266" height="72.5266" rx="6.2832" transform="rotate(45 55.7739 4.4898)" stroke="#FFC800" stroke-width="1.85295"/>
<path d="M25.6362 63.2148C28.6467 63.2148 28.6467 66.1626 31.658 66.1626C34.6694 66.1626 34.6685 63.2148 37.6798 63.2148C40.6912 63.2148 40.6912 66.1626 43.7017 66.1626C46.7121 66.1626 46.713 63.2148 49.7235 63.2148C52.7339 63.2148 52.7339 66.1626 55.7453 66.1626C58.7566 66.1626 58.7566 63.2148 61.7671 63.2148C64.7775 63.2148 64.7785 66.1626 67.7889 66.1626C70.7993 66.1626 70.7993 63.2148 73.8107 63.2148C76.8221 63.2148 76.8221 66.1626 79.8325 66.1626C82.843 66.1626 82.8439 63.2148 85.8543 63.2148" stroke="#FFC800" stroke-width="2.22354" stroke-miterlimit="10" stroke-linecap="round"/>
<path d="M25.6362 68.5983C28.6467 68.5983 28.6467 71.5461 31.658 71.5461C34.6694 71.5461 34.6685 68.5983 37.6798 68.5983C40.6912 68.5983 40.6912 71.5461 43.7017 71.5461C46.7121 71.5461 46.713 68.5983 49.7235 68.5983C52.7339 68.5983 52.7339 71.5461 55.7453 71.5461C58.7566 71.5461 58.7566 68.5983 61.7671 68.5983C64.7775 68.5983 64.7785 71.5461 67.7889 71.5461C70.7993 71.5461 70.7993 68.5983 73.8107 68.5983C76.8221 68.5983 76.8221 71.5461 79.8325 71.5461C82.843 71.5461 82.8439 68.5983 85.8543 68.5983" stroke="#FFC800" stroke-width="2.22354" stroke-miterlimit="10" stroke-linecap="round"/>
<path fill-rule="evenodd" clip-rule="evenodd" d="M62.6267 34.9077C64.8222 35.3503 66.6713 36.5789 67.9278 38.4296C68.7755 39.6786 69.1767 40.8163 69.4011 42.6096L69.5767 44.0132L70.2355 44.206C70.6223 44.3191 71.1557 44.3598 71.5275 44.3043C72.0197 44.2311 72.2252 44.2686 72.4502 44.4732C72.8333 44.8213 72.8262 45.7446 72.4338 46.6136C72.2188 47.0894 72.1605 47.4329 72.2274 47.8306C72.3406 48.5034 72.2227 48.9285 71.8852 49.0643C71.232 49.3269 69.9122 49.6187 68.975 49.7075L67.9415 49.8055L67.8965 50.5937C67.8668 51.115 67.9782 51.8181 68.2251 52.6695C68.9939 55.3194 69.0677 57.427 68.4606 59.3999C68.0931 60.5946 67.4783 61.6555 66.6414 62.569C66.1708 62.3517 65.7998 61.9952 65.3578 61.5625L65.3344 61.5396C64.5741 60.7951 63.6108 59.852 61.7669 59.852C59.9231 59.852 58.9601 60.7951 58.1999 61.5395L58.1764 61.5626C57.4349 62.2885 56.8932 62.7998 55.7451 62.7998C54.597 62.7998 54.0553 62.2885 53.3139 61.5626L53.2903 61.5395C52.5301 60.7951 51.5671 59.852 49.7233 59.852C47.8794 59.852 46.9162 60.7951 46.1558 61.5396L46.1324 61.5625C45.4075 62.2722 44.8736 62.7766 43.7783 62.799C42.5318 61.6915 41.5273 60.3423 40.7853 58.7626C39.7693 56.5994 39.3948 54.222 39.6485 51.548C40.0346 47.4802 41.3855 45.0065 43.2497 44.9533C43.7271 44.9396 44.3937 45.5268 44.3937 45.9609C44.3937 46.1792 45.6256 47.7957 45.9281 47.9746C46.3804 48.2419 48.138 48.7229 49.1223 48.8489C50.2449 48.9926 51.8852 48.8639 52.9565 48.5482C53.8921 48.2724 53.9057 48.2345 53.4135 47.2618C52.7956 46.0407 52.5184 44.7264 52.5159 43.0065C52.512 40.4763 53.1969 38.7149 54.8131 37.098C56.6449 35.2654 59.8894 34.3559 62.6267 34.9077ZM63.1689 43.1039C63.0013 42.8445 62.7339 42.6353 62.4777 42.4487C62.4354 42.4159 62.3853 42.38 62.3316 42.3414C61.9977 42.1015 61.522 41.7598 61.8796 41.4351C62.0151 41.3098 62.2491 41.2057 62.4473 41.1767C62.7235 41.1394 62.9793 40.9933 63.0281 40.7109C63.0776 40.4363 62.8678 40.1101 62.5331 40.0903C62.3921 40.0816 62.2449 40.0972 62.1081 40.1276L62.0881 39.9396C62.0147 39.2504 61.0712 39.3508 61.1446 40.0401L61.1446 40.0402C61.1621 40.2046 61.1804 40.3769 61.1926 40.5736C60.9183 40.7929 60.7104 41.0605 60.6254 41.331C60.3357 42.146 60.9346 42.7555 61.5964 43.2158C61.9475 43.4715 62.4727 43.8829 61.7486 44.0709C61.5368 44.1254 61.2701 44.1464 61.0577 44.1631C60.954 44.1712 60.8632 44.1784 60.7981 44.1879C60.4642 44.1759 60.2214 44.5265 60.2497 44.7928C60.2831 45.1061 60.5792 45.2568 60.9123 45.2609C61.1321 45.2692 61.3571 45.2453 61.5814 45.2135L61.6039 45.4249C61.6772 46.1142 62.6207 46.0138 62.556 45.3236L62.5135 44.9242L62.6548 44.8537C63.3606 44.4934 63.5774 43.7337 63.1689 43.1039Z" fill="#FFC800"/>
<rect x="161.226" y="-3.05176e-05" width="78.8761" height="78.8761" rx="9.79776" transform="rotate(45 161.226 -3.05176e-05)" fill="black"/>
<rect x="161.226" y="4.4898" width="72.5266" height="72.5266" rx="6.2832" transform="rotate(45 161.226 4.4898)" stroke="#FFC800" stroke-width="1.85295"/>
<path d="M167.413 37.0129L182.22 61.6744C184.348 65.2164 183.302 69.8765 179.884 72.0817C178.738 72.8261 177.4 73.2221 176.033 73.2219H146.417C142.393 73.2219 139.13 69.8412 139.13 65.6672C139.13 64.2553 139.512 62.8743 140.23 61.6744L155.039 37.0129C157.165 33.4708 161.659 32.3859 165.077 34.5911C166.023 35.201 166.823 36.0296 167.413 37.0129ZM162.508 38.8667C162.237 38.6927 161.934 38.5754 161.617 38.5218C161.3 38.4681 160.975 38.4794 160.663 38.5547C160.35 38.6301 160.056 38.7681 159.798 38.9603C159.54 39.1526 159.324 39.3951 159.162 39.6733L144.356 64.3392C144.115 64.7412 143.988 65.201 143.989 65.6694C143.989 67.0615 145.076 68.1884 146.419 68.1884H176.031C176.486 68.1884 176.93 68.0558 177.314 67.8083C177.866 67.4418 178.255 66.8765 178.4 66.2303C178.546 65.584 178.436 64.9067 178.094 64.3392L163.288 39.6733C163.095 39.3475 162.828 39.0713 162.51 38.8667H162.508ZM161.226 64.3834C160.64 64.3834 160.078 64.1506 159.664 63.7362C159.249 63.3219 159.016 62.7598 159.016 62.1738C159.016 61.5878 159.249 61.0258 159.664 60.6114C160.078 60.197 160.64 59.9642 161.226 59.9642C161.812 59.9642 162.374 60.197 162.789 60.6114C163.203 61.0258 163.436 61.5878 163.436 62.1738C163.436 62.7598 163.203 63.3219 162.789 63.7362C162.374 64.1506 161.812 64.3834 161.226 64.3834ZM161.226 44.4968C161.812 44.4968 162.374 44.7296 162.789 45.144C163.203 45.5584 163.436 46.1204 163.436 46.7065V55.5449C163.436 56.131 163.203 56.693 162.789 57.1074C162.374 57.5218 161.812 57.7546 161.226 57.7546C160.64 57.7546 160.078 57.5218 159.664 57.1074C159.249 56.693 159.016 56.131 159.016 55.5449V46.7065C159.016 46.1204 159.249 45.5584 159.664 45.144C160.078 44.7296 160.64 44.4968 161.226 44.4968Z" fill="#FFC800"/>
</svg>
