<svg width="258" height="240" viewBox="0 0 258 240" fill="none" xmlns="http://www.w3.org/2000/svg">
<path d="M117.801 111.355C119.602 111.105 121.21 112.295 121.52 114.022C123.258 123.693 127.046 133.048 132.366 141.761C133.314 143.247 133.392 145.079 131.95 146.334C130.727 147.351 128.308 147.366 127.359 145.879C125.087 142.282 122.996 138.463 121.254 134.487C119.43 135.307 117.546 136.202 115.858 137.428C117.183 139.958 118.641 142.475 120.044 144.97C120.915 146.492 119.896 148.583 118.421 149.247C116.714 150.015 115.055 149.128 114.184 147.607C109.415 139.392 104.715 130.914 102.776 121.521C102.427 119.811 103.81 118.116 105.46 117.84C107.243 117.551 108.791 118.815 109.158 120.563C109.613 122.925 110.087 124.392 110.909 126.635C111.526 128.317 112.203 129.926 112.936 131.556C114.793 130.394 116.815 129.391 118.794 128.5C117.241 124.113 115.997 119.586 115.156 115.018C114.807 113.309 116.095 111.609 117.801 111.355ZM143.193 125.364C144.298 123.981 146.106 123.54 147.697 124.691C149.063 125.757 149.652 128.105 148.566 129.527C146.151 132.666 145.064 138.755 140.295 138.94C134.726 139.112 131.059 131.896 128.96 127.334C127.944 125.178 127.104 122.896 126.165 120.705C125.314 118.708 124.128 116.488 123.933 114.29C123.733 111.253 124.76 108.971 127.238 107.53C129.737 106.032 132.861 106.027 135.708 105.82C137.427 105.7 139.152 106.837 139.472 108.793C139.799 110.559 138.654 112.474 136.879 112.572C135.674 112.694 134.395 112.756 133.152 112.896C131.791 113.088 129.861 113.256 130.716 115.158C131.379 116.633 132.099 118.129 132.695 119.868C134.026 118.989 135.371 118.244 136.828 117.542C140.554 115.866 143.382 122.153 139.691 123.906C137.984 124.674 136.815 125.293 135.554 126.327C138.347 131.604 139.058 131.937 142.017 127.106C142.386 126.474 142.79 125.919 143.193 125.364ZM162.53 94.6871C164.35 94.8949 165.316 96.4202 165.341 98.1354C165.29 103.105 165.087 108.049 165.403 112.9C165.697 117.807 166.393 122.673 168.197 126.995C168.857 128.565 168.247 130.425 166.656 131.141C165.104 131.84 163.169 131.17 162.492 129.561C161.243 126.577 160.438 123.439 159.901 120.274C158.816 121.182 157.532 121.854 156.02 122.02C151.235 122.586 148.088 118.496 146.343 114.615C144.789 111.161 143.782 107.367 143.135 103.645C142.881 101.94 144.109 100.314 145.758 100.038C147.464 99.7845 149.072 100.974 149.365 102.662C149.974 106.401 154.32 122.598 157.714 111.366C158.931 107.225 158.877 102.956 159.064 97.4594C159.19 95.7694 160.9 94.487 162.53 94.6871ZM167.732 90.0602C169.207 89.3968 171.046 90.0626 171.671 91.5548C173.374 95.5483 177.593 104.616 179.413 108.557C180.076 110.032 179.414 111.776 177.94 112.44C176.465 113.103 174.682 112.459 174.018 110.984C172.199 107.043 167.979 97.975 166.276 93.9815C165.652 92.4893 166.218 90.7411 167.732 90.0602ZM179.096 114.906C179.134 114.889 179.173 114.871 179.212 114.854C179.949 114.522 180.693 114.514 181.424 114.792C182.194 115.052 182.78 115.628 183.095 116.327C183.426 117.064 183.469 117.885 183.153 118.634C182.875 119.365 182.376 119.916 181.639 120.248C181.6 120.266 181.561 120.283 181.522 120.301C180.824 120.615 180.003 120.657 179.272 120.38C178.54 120.102 177.915 119.543 177.584 118.806C177.269 118.107 177.266 117.269 177.543 116.538C177.821 115.806 178.397 115.22 179.096 114.906ZM176.108 86.2923C177.583 85.6289 179.422 86.2947 180.047 87.7869C181.75 91.7804 185.969 100.848 187.789 104.789C188.452 106.264 187.79 108.008 186.315 108.672C184.841 109.335 183.057 108.691 182.394 107.216C180.574 103.275 176.355 94.2071 174.652 90.2136C174.028 88.7214 174.594 86.9732 176.108 86.2923ZM187.472 111.138C187.51 111.121 187.549 111.103 187.588 111.086C188.325 110.754 189.068 110.746 189.8 111.024C190.57 111.284 191.156 111.86 191.47 112.559C191.802 113.296 191.845 114.117 191.528 114.866C191.251 115.598 190.752 116.149 190.015 116.48C189.976 116.498 189.937 116.515 189.898 116.533C189.2 116.847 188.379 116.89 187.647 116.612C186.916 116.334 186.291 115.775 185.96 115.038C185.645 114.34 185.641 113.501 185.919 112.77C186.197 112.038 186.773 111.452 187.472 111.138Z" fill="black"/>
<path d="M96.9733 123.879C41.5722 147.348 70.232 171.075 125.179 158.824C146.538 154.061 175.231 146.28 194.041 137.285C226.958 121.544 245.622 94.4279 196.098 83.033C158.679 75.0979 116.129 79.9071 78.3556 93.7233C63.6874 99.0884 42.7341 110.782 28.8186 123.151" stroke="black" stroke-width="7" stroke-linecap="round"/>
</svg>
