<svg width="133" height="130" viewBox="0 0 133 130" fill="none" xmlns="http://www.w3.org/2000/svg">
<path d="M20.9152 21.2779C10.3209 32.5842 16.5059 65.3195 20.9227 80.2739C25.4507 70.7951 36.4569 54.9749 38.535 46.0111C42.4764 29.0106 34.1581 7.145 20.9152 21.2779Z" stroke="black" stroke-width="7" stroke-linecap="round" stroke-linejoin="round"/>
<path d="M61.0704 37.6796C51.548 51.7845 47.6456 81.8519 46.8847 95.1224C96.3972 56.957 92.0816 30.6873 88.0699 25.3236C85.3954 21.7478 72.9733 20.0485 61.0704 37.6796Z" stroke="black" stroke-width="7" stroke-linecap="round" stroke-linejoin="round"/>
<path d="M96.3547 80.671C89.4869 83.5939 73.0545 97.3318 65.6968 103.835C71.9019 105.757 87.9338 109.131 102.421 107.25C120.529 104.9 131.059 87.028 122.4 79.4061C113.74 71.7842 104.94 77.0175 96.3547 80.671Z" stroke="black" stroke-width="7" stroke-linecap="round" stroke-linejoin="round"/>
</svg>
