<svg width="140" height="121" viewBox="0 0 140 121" fill="none" xmlns="http://www.w3.org/2000/svg">
<path d="M17.2363 60.7496C21.7751 59.2657 26.2381 57.4808 30.6682 55.7126C35.3644 53.8383 40.4081 52.788 45.3917 48.8675C50.0384 45.212 52.4187 41.1364 55.0136 37.1792C57.7882 32.9478 60.8001 28.6317 62.8919 24.0056C64.4174 20.6319 64.7439 16.9664 65.7655 13.4473C66.0989 12.2992 67.7271 5.37716 67.7997 9.73416C67.9098 16.3383 67.9777 22.907 68.51 29.4946C69.2202 38.283 69.3902 45.6381 75.3229 52.8067C79.2018 57.4936 87.5777 59.8464 93.372 60.1361C96.0719 60.2711 98.7488 60.5675 101.444 60.7173C102.941 60.8004 106.96 60.2706 105.9 61.3308C105.262 61.9688 100.573 61.3308 99.7328 61.3308C95.3296 61.3308 91.502 62.5977 87.2372 63.5264C81.2943 64.8204 72.35 68.0891 68.51 73.5C64.323 79.4 62.4126 84.6143 59.7276 91.3265C57.4408 97.0438 56.8121 102.951 56.0468 108.988C55.9491 109.759 55.4395 113.795 55.2719 113.412C53.9159 110.312 53.1361 106.57 52.2368 103.305C50.6225 97.4464 52.3926 81.8568 43 72.5C35.249 64.7786 23.6751 56.8863 17.2363 60.7496Z" stroke="black" stroke-width="7" stroke-linecap="round" stroke-linejoin="round"/>
<path d="M90 27.454C91.686 26.9035 93.3438 26.2414 94.9894 25.5854C96.7338 24.8901 98.9257 24.2246 100.459 23.046C101.868 21.9623 103.069 20.1779 104.033 18.7099C105.063 17.1402 106.182 15.539 106.959 13.8228C107.526 12.5712 107.647 11.2114 108.027 9.9059C108.15 9.47997 108.755 6.91205 108.782 8.5284C108.823 10.9784 108.848 13.4153 109.046 15.8591C109.31 19.1194 109.373 21.848 111.577 24.5074C113.018 26.2461 116.129 27.1189 118.281 27.2264C119.284 27.2765 120.278 27.3865 121.28 27.442C121.836 27.4729 123.328 27.2763 122.935 27.6696C122.698 27.9063 120.956 27.6696 120.644 27.6696C119.008 27.6696 117.587 28.1396 116.002 28.4841C113.795 28.9642 111.072 29.2438 109.646 31.2511C108.09 33.4399 106.781 36.3073 105.784 38.7974C104.934 40.9184 104.701 43.1097 104.416 45.3495C104.38 45.6355 104.191 47.1326 104.129 46.9905C103.625 45.8407 103.335 44.4522 103.001 43.2413C102.438 41.2015 101.712 39.3599 100.782 37.4558C100.023 35.9011 99.3058 34.1158 97.7719 33.1796C95.3582 31.7065 92.8235 31.8423 90.4318 33.2754" stroke="black" stroke-width="7" stroke-linecap="round" stroke-linejoin="round"/>
</svg>
