<svg width="129" height="122" viewBox="0 0 129 122" fill="none" xmlns="http://www.w3.org/2000/svg">
<path fill-rule="evenodd" clip-rule="evenodd" d="M39.1295 0.610791C30.6289 2.29897 23.4694 6.98516 18.6044 14.0444C15.3221 18.8087 13.7691 23.1482 12.9002 29.9886L12.22 35.3427L9.6694 36.0779C8.17176 36.5094 6.1065 36.6644 4.66717 36.4529C2.76139 36.1735 1.9657 36.3166 1.09455 37.097C-0.388798 38.425 -0.361364 41.9467 1.158 45.2614C1.99027 47.0762 2.21607 48.3866 1.95713 49.9035C1.51869 52.4699 1.97541 54.0914 3.28213 54.6094C5.81097 55.611 10.9212 56.7241 14.5499 57.0628L18.5512 57.4367L18.7255 60.4431C18.8404 62.4316 18.4094 65.1135 17.4531 68.3609C14.4767 78.4685 14.1909 86.5079 16.5414 94.0332C21.8906 111.163 40.7649 121.078 67.9813 121.057C95.1372 121.036 114.558 110.769 123.695 91.6024C127.629 83.351 129.079 74.2828 128.097 64.0831C126.602 48.567 121.372 39.1313 114.154 38.9283C112.305 38.8763 109.724 41.1159 109.724 42.7718C109.724 43.6043 104.955 49.7706 103.783 50.4526C102.032 51.4723 95.2269 53.307 91.416 53.7877C87.0694 54.3357 80.7187 53.8448 76.5705 52.6408C72.9481 51.5888 72.8955 51.444 74.8013 47.734C77.1935 43.0761 78.267 38.063 78.2767 31.5025C78.2916 21.8513 75.6399 15.1326 69.3824 8.96517C62.2897 1.97491 49.7278 -1.49421 39.1295 0.610791Z" fill="#FEA704"/>
</svg>
