<svg width="53" height="68" viewBox="0 0 53 68" fill="none" xmlns="http://www.w3.org/2000/svg">
<path d="M53 38.8352C53 56.638 41.1356 68 26.5001 68C11.8645 68 0 56.638 0 38.8352C0 21.0324 11.8645 0 26.5001 0C41.1356 0 53 21.0324 53 38.8352Z" fill="white"/>
<path d="M23.451 29.9648C24.448 30.867 25.4821 31.8694 26.0729 33.0389C27.5132 35.8792 26.2576 38.9867 23.1186 40.1896L22.4908 40.4235V42.1277C22.4539 45.0681 18.4286 45.0681 18.4286 42.1277V41.2255C17.4684 41.2589 16.5083 41.2589 15.585 41.1252C14.1817 40.9582 13 40.1896 13 38.8531C13 37.717 14.1817 36.347 15.585 36.5475C16.4344 36.514 18.2809 36.6811 19.6473 36.4806C22.7862 36.0128 20.7551 34.0414 19.3887 32.805C16.8037 30.5663 14.551 27.726 16.139 24.418C16.6191 23.3153 17.6161 22.2795 18.8717 21.4775C18.9087 20.6422 18.9087 19.9071 18.9087 19.2054C18.9087 16.2649 22.9339 16.2649 22.9339 19.2054V20.0073C23.5248 19.9405 24.1526 19.9405 24.7435 20.0407C26.1468 20.2746 26.8854 21.7449 26.553 22.8809C26.2206 24.0505 25.0758 24.5517 23.8941 24.5851C23.0447 24.6185 22.0107 24.9526 21.3829 25.4204C19.4626 26.8239 22.2692 28.8287 23.451 29.9648Z" fill="black"/>
<path d="M36.784 31.3845C37.7811 32.2867 38.8151 33.2891 39.4059 34.4587C40.8462 37.2989 39.5906 40.4064 36.4516 41.6093L35.8238 41.8432V43.5474C35.7869 46.4879 31.7616 46.4879 31.7616 43.5474V42.6452C30.8014 42.6786 29.8413 42.6786 28.9181 42.545C27.5147 42.3779 26.333 41.6093 26.333 40.2728C26.333 39.1367 27.5147 37.7667 28.9181 37.9672C29.7674 37.9338 31.6139 38.1008 32.9803 37.9003C36.1192 37.4325 34.0881 35.4611 32.7218 34.2247C30.1367 31.986 27.884 29.1458 29.472 25.8377C29.9521 24.735 30.9492 23.6992 32.2047 22.8972C32.2417 22.0619 32.2417 21.3268 32.2417 20.6251C32.2417 17.6846 36.267 17.6846 36.267 20.6251V21.427C36.8578 21.3602 37.4856 21.3602 38.0765 21.4604C39.4798 21.6943 40.2184 23.1646 39.886 24.3007C39.5537 25.4702 38.4088 25.9714 37.2271 26.0048C36.3777 26.0382 35.3437 26.3724 34.7159 26.8402C32.7956 28.2436 35.6022 30.2484 36.784 31.3845Z" fill="black"/>
</svg>
