<svg width="40" height="38" viewBox="0 0 40 38" fill="none" xmlns="http://www.w3.org/2000/svg">
<path fill-rule="evenodd" clip-rule="evenodd" d="M33.7169 4.37805C32.2228 2.17748 30.0241 0.716657 27.4135 0.190401C24.1587 -0.465787 20.3009 0.615637 18.1227 2.7947C16.201 4.71726 15.3867 6.8117 15.3912 9.82026C15.3942 11.8653 15.7239 13.4281 16.4585 14.8801C17.0438 16.0366 17.0277 16.0817 15.9152 16.4096C14.6413 16.785 12.691 16.938 11.3561 16.7672C10.1857 16.6173 8.09585 16.0454 7.55798 15.7275C7.19828 15.5149 5.73352 13.5927 5.73352 13.3332C5.73352 12.817 4.94092 12.1189 4.37321 12.1351C2.15658 12.1984 0.550338 15.1398 0.0912837 19.9765C-0.210481 23.1561 0.234882 25.9829 1.44299 28.5551C4.2491 34.5298 10.2133 37.7305 18.553 37.737C26.9113 37.7435 32.7076 34.6526 34.3504 29.3129C35.0723 26.967 34.9845 24.4609 34.0704 21.3101C33.7767 20.2978 33.6444 19.4618 33.6796 18.8419L33.7332 17.9047L34.962 17.7881C36.0764 17.6825 37.6458 17.3356 38.4224 17.0233C38.8237 16.8619 38.9639 16.3564 38.8293 15.5564C38.7498 15.0835 38.8191 14.675 39.0747 14.1093C39.5413 13.076 39.5497 11.9782 39.0942 11.5642C38.8267 11.3209 38.5823 11.2763 37.997 11.3634C37.555 11.4293 36.9208 11.381 36.4608 11.2465L35.6775 11.0173L35.4686 9.3483C35.2018 7.21595 34.7248 5.86321 33.7169 4.37805ZM28.0583 9.93598C27.8589 9.62755 27.541 9.37883 27.2363 9.15696C27.186 9.11794 27.1265 9.07519 27.0626 9.02931C26.6656 8.7441 26.1 8.33775 26.5251 7.95174C26.6862 7.80274 26.9645 7.67894 27.2003 7.64443C27.5286 7.60006 27.8328 7.42641 27.8908 7.0906C27.9497 6.7641 27.7002 6.37624 27.3022 6.35268C27.1345 6.34226 26.9596 6.36089 26.7969 6.39704L26.7731 6.17353C26.6858 5.35399 25.564 5.47339 25.6512 6.29293C25.672 6.4885 25.6938 6.69338 25.7083 6.9273C25.3821 7.18806 25.135 7.50633 25.0339 7.8279C24.6894 8.79698 25.4015 9.52176 26.1884 10.0691C26.6059 10.3731 27.2304 10.8623 26.3695 11.0858C26.1176 11.1506 25.8004 11.1755 25.5479 11.1954C25.4245 11.2051 25.3166 11.2136 25.2393 11.2249C24.8422 11.2107 24.5535 11.6276 24.5872 11.9442C24.6268 12.3167 24.979 12.4959 25.3751 12.5008C25.6363 12.5107 25.9039 12.4822 26.1705 12.4444L26.1973 12.6958C26.2845 13.5154 27.4064 13.396 27.3295 12.5753L27.2789 12.1004L27.447 12.0166C28.2862 11.5882 28.5439 10.6849 28.0583 9.93598Z" fill="#FFC800"/>
</svg>
