<svg width="29" height="29" viewBox="0 0 29 29" fill="none" xmlns="http://www.w3.org/2000/svg">
<rect x="0.58" y="0.58" width="27.84" height="27.84" rx="13.92" stroke="white" stroke-width="1.16"/>
<path fill-rule="evenodd" clip-rule="evenodd" d="M17.3429 9.0555C18.1373 9.2089 18.8065 9.63472 19.2612 10.2762C19.568 10.7091 19.7131 11.1034 19.7943 11.7249L19.8579 12.2115L20.0963 12.2783C20.2362 12.3175 20.4293 12.3316 20.5638 12.3123C20.7419 12.2869 20.8163 12.2999 20.8977 12.3709C21.0363 12.4915 21.0338 12.8115 20.8918 13.1127C20.814 13.2776 20.7929 13.3967 20.8171 13.5345C20.8581 13.7677 20.8154 13.9151 20.6932 13.9622C20.4569 14.0532 19.9793 14.1543 19.6401 14.1851L19.2662 14.219L19.2499 14.4922C19.2391 14.6729 19.2794 14.9166 19.3688 15.2117C19.647 16.1301 19.6737 16.8606 19.454 17.5444C18.9541 19.1009 17.19 20.0019 14.6463 20C12.1083 19.9981 10.2931 19.0651 9.43915 17.3236C9.07148 16.5738 8.93594 15.7498 9.02778 14.823C9.16749 13.4131 9.65632 12.5557 10.3309 12.5373C10.5037 12.5325 10.7449 12.736 10.7449 12.8865C10.7449 12.9622 11.1907 13.5225 11.3002 13.5844C11.4638 13.6771 12.0999 13.8438 12.456 13.8875C12.8623 13.9373 13.4558 13.8927 13.8435 13.7833C14.1821 13.6877 14.187 13.6745 14.0089 13.3374C13.7853 12.9142 13.685 12.4586 13.6841 11.8625C13.6827 10.9855 13.9305 10.375 14.5154 9.81463C15.1783 9.17945 16.3523 8.86423 17.3429 9.0555Z" fill="white"/>
</svg>
