<svg width="72" height="72" viewBox="0 0 72 72" fill="none" xmlns="http://www.w3.org/2000/svg">
<path d="M44.5143 13.6759L64.3873 46.7757C67.2432 51.5297 65.8405 57.7843 61.2526 60.7441C59.7137 61.7431 57.9182 62.2747 56.0834 62.2743H16.3345C10.934 62.2743 6.55371 57.7369 6.55371 52.1347C6.55371 50.2396 7.06677 48.3861 8.03062 46.7757L27.9066 13.6759C30.7595 8.92188 36.7917 7.46573 41.3796 10.4255C42.6489 11.244 43.7225 12.3561 44.5143 13.6759ZM37.9305 16.1641C37.5675 15.9305 37.1608 15.773 36.7352 15.701C36.3096 15.6291 35.8737 15.6441 35.4541 15.7453C35.0344 15.8465 34.6396 16.0317 34.2935 16.2897C33.9475 16.5477 33.6573 16.8732 33.4405 17.2465L13.5675 50.3523C13.2447 50.8918 13.0745 51.5089 13.0752 52.1377C13.0752 54.006 14.5343 55.5185 16.3375 55.5185H56.0805C56.6914 55.5185 57.2875 55.3406 57.8035 55.0084C58.544 54.5165 59.0661 53.7578 59.2611 52.8904C59.4561 52.0231 59.309 51.1139 58.8504 50.3523L38.9774 17.2465C38.7185 16.8093 38.361 16.4387 37.9335 16.1641H37.9305ZM36.2104 50.4116C35.4239 50.4116 34.6696 50.0992 34.1134 49.543C33.5572 48.9868 33.2448 48.2325 33.2448 47.446C33.2448 46.6594 33.5572 45.9051 34.1134 45.3489C34.6696 44.7928 35.4239 44.4803 36.2104 44.4803C36.997 44.4803 37.7513 44.7928 38.3075 45.3489C38.8637 45.9051 39.1761 46.6594 39.1761 47.446C39.1761 48.2325 38.8637 48.9868 38.3075 49.543C37.7513 50.0992 36.997 50.4116 36.2104 50.4116ZM36.2104 23.7206C36.997 23.7206 37.7513 24.033 38.3075 24.5892C38.8637 25.1454 39.1761 25.8997 39.1761 26.6863V38.549C39.1761 39.3355 38.8637 40.0898 38.3075 40.646C37.7513 41.2022 36.997 41.5146 36.2104 41.5146C35.4239 41.5146 34.6696 41.2022 34.1134 40.646C33.5572 40.0898 33.2448 39.3355 33.2448 38.549V26.6863C33.2448 25.8997 33.5572 25.1454 34.1134 24.5892C34.6696 24.033 35.4239 23.7206 36.2104 23.7206Z" fill="#FFC800"/>
</svg>
