<svg width="899" height="39" viewBox="0 0 899 39" fill="none" xmlns="http://www.w3.org/2000/svg">
<path d="M878.692 38.9084C866.182 38.9084 857.986 31.3163 857.986 19.583C857.986 7.80656 866.182 0.257568 878.692 0.257568C888.139 0.257568 897.802 4.35559 898.621 17.6849H885.163C884.516 14.1477 882.229 12.4654 878.692 12.4654C875.069 12.4654 872.092 15.0967 872.092 19.583C872.092 24.0692 875.069 26.7006 878.692 26.7006C882.229 26.7006 884.516 24.9751 885.163 21.3516H898.621C897.802 34.7672 888.225 38.9084 878.692 38.9084Z" fill="#FFC800"/>
<path d="M837.321 38.9084C823.819 38.8652 817.866 34.9829 818.341 24.9751H831.066C831.066 26.7869 832.662 27.8653 837.321 27.9084C841.203 27.9947 842.67 27.0888 842.67 26.1829C842.67 25.9241 842.972 24.7163 839.952 24.3712L835.164 23.6379C828.305 22.6026 819.117 22.43 819.117 12.2497C819.117 4.87324 824.984 0.257568 837.407 0.257568C848.45 0.257568 856.129 2.84579 855.741 14.1046L843.101 14.1046C842.756 12.2928 841.074 11.2144 837.105 11.2144C833.741 11.2144 832.748 12.1203 832.748 12.983C832.748 13.2418 832.662 14.4065 834.776 14.6653L838.572 15.2693C845.948 16.4771 856.776 16.0457 856.776 26.7869C856.776 35.1555 850.478 38.9947 837.321 38.9084Z" fill="#FFC800"/>
<path d="M811.787 19.2379C815.022 21.136 817.05 23.4654 817.05 27.4771C817.05 33.1712 812.995 37.7006 801.219 37.7006H777.752V1.46545L802.168 1.46545C813.513 1.46545 816.23 6.6419 816.23 11.3007C816.23 15.5713 813.987 17.0811 811.787 18.4615V19.2379ZM800.528 12.2066H791.944V15.9164H800.528C802.556 15.9164 802.685 14.4928 802.685 14.1046C802.685 13.5438 802.556 12.2066 800.528 12.2066ZM800.658 26.9163C802.642 26.9163 802.728 25.3203 802.728 25.0183C802.728 24.6732 802.642 23.1634 800.658 23.1634H791.944V26.9163H800.658Z" fill="#FFC800"/>
<path d="M764.323 37.7006H750.433L746.206 29.2889H738.916V37.7006H724.724V1.46545L746.637 1.46545C756.904 1.46545 762.9 5.60661 762.9 15.8732C762.9 20.5752 760.916 23.9399 758.198 26.0967L764.323 37.7006ZM738.916 13.1987V18.8066H745.559C747.716 18.8066 748.665 17.685 748.665 16.0026C748.665 14.3203 747.716 13.1987 745.559 13.1987H738.916Z" fill="#FFC800"/>
<path d="M688.074 37.7006V1.46545L722.152 1.46545V12.7242L702.266 12.7242V15.1399L721.376 15.1399V24.0693H702.266V26.4418H722.152V37.7006H688.074Z" fill="#FFC800"/>
<path d="M654.088 37.7006L641.233 1.46545L655.857 1.46545L663.32 24.4144H664.743L672.163 1.46545L686.786 1.46545L673.931 37.7006H654.088Z" fill="#FFC800"/>
<path d="M623.263 38.9084C610.366 38.9084 602.299 31.3163 602.299 19.583C602.299 7.80656 610.366 0.257568 623.263 0.257568C636.118 0.257568 644.185 7.80656 644.185 19.583C644.185 31.3163 636.118 38.9084 623.263 38.9084ZM623.263 26.7006C626.844 26.7006 630.122 24.3712 630.122 19.583C630.122 14.7516 626.844 12.4654 623.263 12.4654C619.64 12.4654 616.405 14.7516 616.405 19.583C616.405 24.3712 619.64 26.7006 623.263 26.7006Z" fill="#FFC800"/>
<path d="M548.806 37.7006V1.46545L565.025 1.46545L573.868 17.8575H575.119V1.46545L588.923 1.46545V37.7006H573.092L563.904 21.3085H562.609V37.7006H548.806Z" fill="#FFC800"/>
<path d="M512.155 37.7006V1.46545L546.234 1.46545V12.7242L526.347 12.7242V15.1399L545.457 15.1399V24.0693H526.347V26.4418H546.234V37.7006H512.155Z" fill="#FFC800"/>
<path d="M511.406 37.7006H497.041L488.716 26.1399H487.939L483.841 30.583V37.7006H469.692V1.46545L483.841 1.46545V13.8027H484.704L495.488 1.46545L511.147 1.46545L496.653 17.5987L511.406 37.7006Z" fill="#FFC800"/>
<path d="M453.781 37.7006L452.616 33.7751H438.683L437.475 37.7006H422.852L435.706 1.46545L455.549 1.46545L468.404 37.7006H453.781ZM441.832 23.3791H449.467L446.836 14.7085H444.463L441.832 23.3791Z" fill="#FFC800"/>
<path d="M429.12 1.46545V13.2419L416.437 13.2419V37.7006H402.288V13.2419H389.606V1.46545L429.12 1.46545Z" fill="#FFC800"/>
<path d="M343.163 37.7006V1.46545L377.241 1.46545V12.7242L357.355 12.7242V15.1399L376.465 15.1399V24.0693H357.355V26.4418H377.241V37.7006H343.163Z" fill="#FFC800"/>
<path d="M309.177 37.7006L296.322 1.46545L310.946 1.46545L318.408 24.4144H319.832L327.252 1.46545L341.875 1.46545L329.02 37.7006H309.177Z" fill="#FFC800"/>
<path d="M290.349 37.7006L289.185 33.7751H275.251L274.043 37.7006H259.42L272.275 1.46545L292.118 1.46545L304.973 37.7006H290.349ZM278.4 23.3791H286.035L283.404 14.7085H281.032L278.4 23.3791Z" fill="#FFC800"/>
<path d="M243.925 1.46545L258.117 1.46545V37.7006H243.925V25.5359H232.493V37.7006H218.301V1.46545L232.493 1.46545V13.6301H243.925V1.46545Z" fill="#FFC800"/>
<path d="M185.564 38.9084C172.062 38.8652 166.109 34.9829 166.584 24.9751H179.309C179.309 26.7869 180.905 27.8653 185.564 27.9084C189.446 27.9947 190.913 27.0888 190.913 26.1829C190.913 25.9241 191.215 24.7163 188.196 24.3712L183.407 23.6379C176.548 22.6026 167.36 22.43 167.36 12.2497C167.36 4.87324 173.227 0.257568 185.65 0.257568C196.694 0.257568 204.372 2.84579 203.984 14.1046L191.345 14.1046C190.999 12.2928 189.317 11.2144 185.348 11.2144C181.984 11.2144 180.992 12.1203 180.992 12.983C180.992 13.2418 180.905 14.4065 183.019 14.6653L186.815 15.2693C194.192 16.4771 205.019 16.0457 205.019 26.7869C205.019 35.1555 198.721 38.9947 185.564 38.9084Z" fill="#FFC800"/>
<path d="M168.011 37.7006H153.647L145.321 26.1399H144.545L140.447 30.583V37.7006H126.298V1.46545L140.447 1.46545V13.8027H141.31L152.094 1.46545L167.753 1.46545L153.259 17.5987L168.011 37.7006Z" fill="#FFC800"/>
<path d="M104.45 38.9084C91.9402 38.9084 83.7441 31.3163 83.7441 19.583C83.7441 7.80656 91.9402 0.257568 104.45 0.257568C113.897 0.257568 123.56 4.35559 124.379 17.6849H110.92C110.273 14.1477 107.987 12.4654 104.45 12.4654C100.826 12.4654 97.85 15.0967 97.85 19.583C97.85 24.0692 100.826 26.7006 104.45 26.7006C107.987 26.7006 110.273 24.9751 110.92 21.3516H124.379C123.56 34.7672 113.983 38.9084 104.45 38.9084Z" fill="#FFC800"/>
<path d="M62.1615 38.9084C48.8322 38.9084 42.5342 33.5594 42.5342 21.4379V1.46545L56.8125 1.46545V21.0928C56.8125 24.7163 58.1929 27.0457 62.1615 27.0457C66.1302 27.0457 67.6399 24.7163 67.6399 21.0928V1.46545L81.7889 1.46545V21.3085C81.7889 33.5594 75.4909 38.9084 62.1615 38.9084Z" fill="#FFC800"/>
<path d="M20.1195 1.46545C35.3469 1.46545 40.3939 9.05758 40.3939 19.583C40.3939 30.0222 35.3469 37.7006 20.1195 37.7006H0.880371L0.880371 1.46545L20.1195 1.46545ZM20.1626 25.8379C23.2254 25.8379 26.1587 24.5438 26.1587 19.583C26.1587 14.536 23.2254 13.285 20.1626 13.285H15.1156L15.1156 25.8379H20.1626Z" fill="#FFC800"/>
</svg>
