<svg width="101" height="98" viewBox="0 0 101 98" fill="none" xmlns="http://www.w3.org/2000/svg">
<path id="Vector" fill-rule="evenodd" clip-rule="evenodd" d="M67.3097 0.218357C74.1326 1.03397 80.0782 4.3004 84.3546 9.58195C87.2397 13.1465 88.732 16.4809 89.8359 21.8332L90.7 26.0225L92.7611 26.4479C93.9714 26.6976 95.6135 26.6941 96.7385 26.4392C98.228 26.1022 98.8658 26.1667 99.6021 26.7303C100.856 27.6892 101.049 30.4737 100.05 33.1857C99.5022 34.6706 99.4036 35.7198 99.7008 36.9026C100.204 38.9039 99.9416 40.213 98.9402 40.7021C97.0021 41.6478 93.03 42.8389 90.182 43.3279L87.0416 43.8673L87.087 46.2537C87.1174 47.832 87.6216 49.9249 88.5756 52.4327C91.5447 60.2382 92.2607 66.5735 90.8612 72.6633C87.6766 86.5253 73.36 95.5114 51.8429 97.1546C30.3737 98.7941 14.3948 91.8649 6.00305 77.2771C2.39016 70.9967 0.690953 63.9195 0.846019 55.7997C1.08192 43.4478 4.64152 35.6727 10.3352 35.0721C11.7934 34.9182 13.9702 36.5306 14.0712 37.8391C14.1219 38.4969 18.2684 43.0787 19.2359 43.5462C20.6826 44.2452 26.1742 45.2799 29.2162 45.4274C32.6858 45.5954 37.6764 44.8202 40.8824 43.6157C43.6819 42.5636 43.7146 42.446 41.9819 39.6305C39.8068 36.0957 38.6526 32.1998 38.245 27.0164C37.6449 19.3909 39.3317 13.92 43.9026 8.6649C49.0836 2.70866 58.8028 -0.798695 67.3097 0.218357Z" fill="#FFD500"/>
</svg>
