<svg width="1563" height="418" viewBox="0 0 1563 418" fill="none" xmlns="http://www.w3.org/2000/svg">
<path d="M1088.28 11.2203C1096.22 9.60992 1103.59 12.8448 1108.25 19.6886C1115.14 30.1425 1113.95 47.5171 1103.19 55.6141C1100.49 57.5579 1097.55 59.0439 1094.45 59.755C1090.89 60.6404 1087.02 61.2575 1083.41 60.3472C1076.62 58.6722 1076.07 51.3493 1076.88 45.4883C1078.3 35.3602 1080.36 25.3851 1080.76 15.2169C1080.93 10.8682 1085.46 9.57271 1088.28 11.2203ZM1086.54 50.7344C1093.12 50.9925 1099.36 47.2016 1101.66 40.6948C1103.47 35.4496 1103.08 28.9655 1099.79 24.6734C1097.78 21.9687 1094.64 20.4365 1090.13 21.0925C1089.28 29.8337 1087.4 38.4709 1086.48 47.2736C1086.37 48.3582 1086.2 49.5043 1086.35 50.599C1086.35 50.663 1086.35 50.663 1086.35 50.7269C1086.41 50.7294 1086.47 50.7319 1086.54 50.7344ZM1120.24 58.8442C1117.75 58.7465 1115.98 56.6274 1116.01 54.1948C1116.14 47.6668 1117.8 41.2629 1118.11 34.7424C1118.21 32.3122 1120.33 30.4099 1122.76 30.5051C1125.19 30.6004 1127.1 32.6605 1127 35.0906C1126.68 41.6111 1125.02 48.0151 1124.9 54.5431C1124.87 56.9757 1122.68 58.9395 1120.24 58.8442ZM1125.1 26.4335C1123.95 26.3884 1122.82 25.8957 1122.02 25.0317C1121.22 24.1678 1120.75 22.9966 1120.8 21.8455C1120.85 20.6305 1121.4 19.4994 1122.27 18.7006C1123.13 17.9018 1124.3 17.4992 1125.45 17.5443C1125.51 17.5468 1125.58 17.5494 1125.64 17.5519C1126.86 17.5995 1127.86 18.0872 1128.66 18.9511C1129.52 19.8176 1129.93 20.9862 1129.88 22.2013C1129.83 23.3524 1129.34 24.486 1128.41 25.2823C1127.55 26.0811 1126.51 26.4886 1125.29 26.441C1125.23 26.4385 1125.17 26.436 1125.1 26.4335ZM1154.71 23.4944C1157.24 24.298 1158.35 27.0955 1157.79 29.7639C1156.85 34.2744 1155.55 41.205 1153.45 47.5274C1152.64 50.1858 1151.7 52.7752 1150.14 55.0837C1148.78 57.208 1146.57 59.6194 1144 59.8389C1136.73 60.5151 1133.67 53.6699 1132.71 47.2272C1131.72 41.2961 1131.64 35.3362 1131.87 29.4527C1132.12 22.9936 1141.58 23.3644 1141.33 29.8235C1141.09 36.0267 1141.17 42.1146 1142.77 48.7742L1142.77 48.7103C1144.23 45.7572 1145.13 42.4618 1146.04 38.7187C1147.03 34.7224 1147.7 30.7135 1148.75 26.7837C1149.43 24.1842 1152.31 22.6957 1154.71 23.4944ZM1176.26 52.1361C1177.99 50.6025 1180.68 50.5158 1182.4 52.3766C1184 54.1045 1184.07 57.1817 1182.16 58.6438C1178.91 61.2709 1174.68 63.0266 1170.52 61.4543C1167.11 60.104 1164.34 57.3053 1162.74 53.9761C1157.94 44.0526 1160.59 30.3859 1172.07 26.6086C1179.86 24.0314 1189.12 31.3115 1185.91 39.7681C1183.4 46.4593 1176.32 49.1279 1169.77 47.8466L1169.83 47.8491C1170.31 50.3018 1173.27 54.9011 1176.26 52.1361ZM1178.84 35.3282C1177.05 30.5182 1169.73 35.7398 1171.08 38.995C1172.43 41.9944 1180.47 39.6191 1178.84 35.3282ZM1215.92 62.5927C1213.43 62.495 1211.65 60.3759 1211.68 57.9433C1211.81 51.4152 1213.47 45.0113 1213.79 38.4908C1213.89 36.0607 1216.01 34.1584 1218.44 34.2536C1220.87 34.3488 1222.78 36.409 1222.68 38.8391C1222.36 45.3596 1220.7 51.7635 1220.57 58.2915C1220.54 60.7242 1218.35 62.6879 1215.92 62.5927ZM1220.78 30.182C1219.63 30.1369 1218.49 29.6441 1217.69 28.7802C1216.9 27.9163 1216.43 26.7451 1216.47 25.594C1216.52 24.3789 1217.08 23.2478 1217.94 22.449C1218.81 21.6503 1219.98 21.2477 1221.13 21.2928C1221.19 21.2953 1221.25 21.2978 1221.32 21.3003C1222.53 21.3479 1223.54 21.8357 1224.34 22.6996C1225.2 23.566 1225.6 24.7347 1225.56 25.9498C1225.51 27.1009 1225.02 28.2344 1224.09 29.0307C1223.23 29.8295 1222.19 30.2371 1220.97 30.1895C1220.91 30.187 1220.84 30.1845 1220.78 30.182ZM1267.47 32.5877C1270.35 42.436 1268.83 51.9196 1270.28 62.0965C1270.63 64.6721 1269.25 67.18 1266.73 67.7858C1264.21 68.3276 1261.65 66.754 1261.04 64.2323C1260.17 60.3552 1260.33 56.1344 1260.17 52.1569C1259.74 38.4978 1258.62 29.4871 1252.12 37.046C1248.09 41.756 1245.77 47.0452 1243.74 52.9225C1242.5 56.9088 1241.18 61.0205 1238.81 64.5141C1236.43 68.0076 1231.41 66.9783 1230.22 63.0247C1227.56 54.0817 1226.34 42.5693 1228.57 33.0494C1229.18 30.5753 1232.24 29.2862 1234.52 30.0159C1237.12 30.822 1238.17 33.4252 1237.56 35.8992C1237.45 38.5212 1236.97 41.0642 1236.92 43.9445C1241.01 37.5719 1245.66 23.599 1255.31 22.5679C1261.67 21.9207 1265.6 26.3018 1267.47 32.5877ZM1333.79 36.0828C1335.82 39.8131 1337.38 44.1016 1338.18 48.2959C1339.07 53.3267 1339.05 58.834 1335.43 62.9195C1331.42 67.2457 1324.11 67.2798 1319.92 63.1445C1319.18 62.411 1318.57 61.6185 1318.03 60.7646C1315.3 65.013 1309.92 69.9901 1303.96 68.4756C1294.44 66.1812 1296.23 49.9189 1298.26 42.1845C1299.91 36.1003 1302.38 30.1766 1304.85 24.3808C1305.84 22.1137 1308.01 20.6615 1310.41 21.4602C1312.56 22.1849 1314.25 24.8131 1313.33 27.0827C1311.14 32.1212 1308.96 37.1596 1307.41 42.4788C1303.05 57.2955 1306.84 65.066 1314.64 47.6297C1315.41 45.8667 1316.87 44.5149 1318.98 44.5975C1320.84 44.6702 1322.83 46.0933 1323.14 47.963C1323.3 48.7379 1323.46 49.6407 1323.61 50.6075C1325.43 59.8377 1331.5 57.001 1329.08 48.3878C1328.42 45.5439 1327.44 42.9433 1326.01 40.2612C1324.81 38.1007 1325.75 35.3834 1327.71 34.2435C1329.94 33.1136 1332.59 33.9862 1333.79 36.0828ZM1346.57 67.7113C1344.08 67.6136 1342.3 65.4945 1342.33 63.0619C1342.46 56.5339 1344.12 50.13 1344.44 43.6095C1344.54 41.1793 1346.66 39.277 1349.09 39.3722C1351.52 39.4675 1353.43 41.5276 1353.33 43.9577C1353.01 50.4782 1351.35 56.8821 1351.22 63.4102C1351.19 65.8428 1349 67.8065 1346.57 67.7113ZM1351.43 35.3006C1350.28 35.2555 1349.14 34.7628 1348.34 33.8988C1347.55 33.0349 1347.08 31.8637 1347.12 30.7126C1347.17 29.4975 1347.73 28.3665 1348.59 27.5677C1349.46 26.7689 1350.62 26.3663 1351.78 26.4114C1351.84 26.4139 1351.9 26.4164 1351.97 26.419C1353.18 26.4666 1354.19 26.9543 1354.99 27.8182C1355.85 28.6847 1356.25 29.8533 1356.21 31.0684C1356.16 32.2195 1355.67 33.3531 1354.74 34.1494C1353.88 34.9482 1352.83 35.3557 1351.62 35.3081C1351.56 35.3056 1351.49 35.3031 1351.43 35.3006ZM1378.71 63.9106C1380.38 62.1826 1383.38 62.4283 1384.98 64.1562C1386.64 65.9505 1386.4 68.6314 1384.73 70.3594C1380.07 75.0443 1374.73 75.5398 1370.63 72.3048C1363.73 66.9106 1363.78 55.96 1364.25 47.1397C1363.29 47.1022 1362.46 47.1335 1361.56 47.1624C1359.12 47.2591 1357.17 44.8127 1357.26 42.5105C1357.36 39.9524 1359.47 38.3699 1361.91 38.2732C1363 38.2519 1364.02 38.228 1365.11 38.2706C1365.76 33.1721 1366.53 28.2064 1367.11 23.1694C1367.4 20.8107 1369.2 18.8959 1371.76 18.9961C1374 19.0838 1376.29 21.1589 1376 23.5176C1375.42 28.4908 1374.65 33.3924 1374.01 38.3631C1375.87 38.4357 1379.71 38.3942 1381.5 38.4644C1387.26 38.6899 1386.91 47.579 1381.15 47.3535C1379.17 47.2759 1375.13 47.3099 1373.15 47.2322C1372.79 49.8442 1372.57 53.9345 1373.29 58.3822C1373.66 60.5101 1374.9 67.9886 1378.71 63.9106ZM1415.52 64.9686C1415.82 67.2859 1414.7 69.548 1412.18 70.1538C1410.05 70.6467 1406.71 69.2988 1406.87 66.8072C1408.07 46.0382 1400.41 48.6203 1399.39 66.3862C1399.14 71.2439 1390.45 70.5834 1390.66 65.2116C1391.15 52.6772 1393.24 40.2694 1393.15 27.9043C1393.12 25.4691 1395.44 23.5104 1397.74 23.6006C1400.17 23.6958 1401.94 25.8149 1401.91 28.2475C1401.97 33.3097 1401.64 38.5487 1401.24 43.7212C1401.37 43.5983 1401.57 43.5418 1401.77 43.4215C1404.5 42.3756 1407.25 42.4194 1409.94 43.934C1412.38 45.3747 1413.95 47.9979 1414.67 50.7164C1415.4 53.4989 1415.47 56.4481 1415.49 59.203C1415.51 60.4845 1415.46 61.7636 1415.47 62.9811C1415.52 63.4952 1415.5 64.0068 1415.54 64.521C1415.54 64.6489 1415.53 64.7768 1415.52 64.9686ZM1472.52 61.5012C1472.11 65.3922 1472.04 68.912 1473.43 72.6813C1474.48 75.0926 1473.86 77.8224 1471.51 79.0752C1469.35 80.2076 1466.11 79.5042 1465.12 77.1594C1463.47 73.444 1462.85 69.5769 1462.81 65.6044C1460.47 68.1387 1457.83 70.2768 1454.58 71.3666C1452.05 72.1642 1449.12 71.8571 1446.94 70.3625C1443.88 68.3212 1442.59 65.2604 1442.21 61.723C1441.74 55.8759 1444.29 49.6989 1446.86 44.6116C1448.04 42.288 1451.38 41.8427 1453.38 43.138C1455.69 44.6376 1455.97 47.3386 1454.79 49.6622C1454.72 49.8515 1454.65 50.0409 1454.58 50.1663C1448.65 60.9504 1451.49 66.8902 1459.82 55.3674C1461.72 52.6877 1463.47 48.7853 1465.06 45.9012C1467.4 41.6377 1473.84 44.1955 1473.79 48.6771C1473.69 52.9643 1472.94 57.2265 1472.52 61.5012ZM1495.34 56.951C1497 58.7453 1498.71 60.734 1499.65 63.0124C1501.93 68.5459 1499.52 74.4082 1493.99 76.4974C1489.96 78.1327 1485.2 78.5229 1480.88 77.7769C1478.46 77.362 1476.47 75.8109 1476.57 73.2529C1476.66 71.0786 1478.81 68.5367 1481.22 69.0157C1482.69 69.0093 1485.88 69.4544 1488.26 69.1634C1493.73 68.481 1490.36 64.5701 1488.09 62.1112C1483.78 57.6511 1480.09 52.0625 1483.09 45.8391C1485.33 40.9311 1492.41 36.7251 1498.32 38.0453C1500.73 38.5881 1501.9 41.4521 1501.24 43.6039C1500.58 45.8196 1498.56 46.7012 1496.51 46.685C1495.03 46.6913 1493.22 47.2606 1492.1 48.1134C1488.67 50.669 1493.38 54.6965 1495.34 56.951ZM1511.05 26.8871C1513.48 26.9823 1515.51 29.1114 1515.35 31.5391C1514.97 38.057 1514.57 53.093 1514.38 59.6185C1514.28 62.0487 1512.22 63.9535 1509.79 63.8583C1507.36 63.7631 1505.39 61.7004 1505.49 59.2703C1505.68 52.7448 1506.08 37.7088 1506.46 31.1908C1506.62 28.7632 1508.56 26.7894 1511.05 26.8871ZM1509.7 67.9536C1509.76 67.9561 1509.83 67.9586 1509.89 67.9612C1511.1 68.0088 1512.11 68.4965 1512.91 69.3604C1513.77 70.2269 1514.17 71.3955 1514.13 72.5466C1514.08 73.7617 1513.59 74.8953 1512.66 75.6916C1511.8 76.4904 1510.76 76.8979 1509.54 76.8503C1509.48 76.8478 1509.41 76.8453 1509.35 76.8428C1508.2 76.7977 1507.06 76.305 1506.27 75.441C1505.47 74.5771 1505 73.4059 1505.05 72.1909C1505.09 71.0397 1505.65 69.9087 1506.51 69.1099C1507.38 68.3111 1508.55 67.9085 1509.7 67.9536Z" fill="black"/>
<path d="M1209.16 267.273V264.073C1209.16 257.52 1212.44 254.243 1218.99 254.243H1266.77C1270.42 254.243 1273.01 254.929 1274.54 256.3C1276.22 257.672 1277.21 259.958 1277.51 263.158C1277.97 271.236 1283.91 275.274 1295.34 275.274C1306.01 275.274 1311.34 271.54 1311.34 264.073C1311.34 259.806 1309.21 256.377 1304.94 253.786C1300.68 251.195 1292.52 248.833 1280.48 246.699C1267.99 244.413 1257.62 241.67 1249.39 238.47C1241.16 235.117 1233.92 230.697 1227.68 225.211C1221.58 219.572 1217.08 212.562 1214.19 204.18C1211.45 195.645 1210.07 185.282 1210.07 173.09C1210.07 150.383 1217.77 132.095 1233.16 118.226C1248.55 104.358 1269.13 97.4236 1294.88 97.4236C1306.47 97.4236 1317.13 98.7952 1326.89 101.538C1336.79 104.129 1345.79 108.244 1353.86 113.883C1362.09 119.369 1368.49 127.065 1373.07 136.971C1377.79 146.877 1380.15 158.46 1380.15 171.719V174.919C1380.15 181.472 1376.88 184.749 1370.32 184.749H1325.29C1321.48 184.749 1318.81 184.063 1317.29 182.691C1315.76 181.32 1315 179.11 1315 176.062C1315 171.947 1313.48 168.747 1310.43 166.461C1307.53 164.022 1303.42 162.803 1298.08 162.803C1287.57 162.803 1282.31 166.689 1282.31 174.462C1282.31 178.729 1284.98 182.234 1290.31 184.977C1295.65 187.568 1305.78 190.159 1320.72 192.75C1342.36 196.255 1358.36 203.723 1368.72 215.153C1379.09 226.583 1384.27 242.356 1384.27 262.473C1384.27 286.552 1376.57 305.602 1361.18 319.623C1345.79 333.643 1324.14 340.654 1296.26 340.654C1269.89 340.654 1248.78 334.329 1232.93 321.68C1217.08 309.031 1209.16 290.895 1209.16 267.273Z" fill="black"/>
<path d="M1018.37 258.358V112.74C1018.37 108.93 1019.13 106.187 1020.66 104.51C1022.33 102.834 1025 101.996 1028.66 101.996H1083.98C1087.63 101.996 1090.23 102.834 1091.75 104.51C1093.43 106.187 1094.26 108.93 1094.26 112.74V235.498C1094.26 252.567 1098.91 261.101 1108.21 261.101C1118.27 261.101 1123.3 252.567 1123.3 235.498V112.74C1123.3 108.93 1124.06 106.187 1125.58 104.51C1127.26 102.834 1129.93 101.996 1133.58 101.996H1188.68C1192.33 101.996 1194.92 102.834 1196.45 104.51C1198.12 106.187 1198.96 108.93 1198.96 112.74V325.338C1198.96 329.148 1198.12 331.891 1196.45 333.568C1194.92 335.244 1192.33 336.082 1188.68 336.082H1147.99C1141.74 336.082 1137.39 335.549 1134.96 334.482C1132.67 333.415 1130.46 331.129 1128.33 327.624C1126.65 324.576 1124.67 323.052 1122.38 323.052C1120.71 323.052 1118.5 324.119 1115.75 326.252C1108.89 331.739 1102.65 335.473 1097.01 337.454C1091.37 339.587 1084.36 340.654 1075.98 340.654C1056.62 340.654 1042.14 333.415 1032.54 318.937C1023.09 304.307 1018.37 284.114 1018.37 258.358Z" fill="black"/>
<path d="M426.522 325.068V112.47C426.522 108.66 427.284 105.917 428.808 104.24C430.484 102.564 433.151 101.726 436.809 101.726H477.5C483.748 101.726 488.015 102.259 490.301 103.326C492.74 104.393 495.026 106.679 497.159 110.184C498.836 113.232 500.893 114.756 503.332 114.756C505.16 114.756 507.218 113.841 509.504 112.013C516.362 106.526 522.839 102.716 528.935 100.583C535.031 98.2965 542.27 97.1536 550.652 97.1536C570.007 97.1536 584.561 104.469 594.314 119.099C604.22 133.73 609.173 153.846 609.173 179.45V325.068C609.173 328.878 608.335 331.621 606.659 333.297C605.135 334.974 602.544 335.812 598.886 335.812H543.565C539.908 335.812 537.241 334.974 535.564 333.297C534.04 331.621 533.278 328.878 533.278 325.068V203.224C533.278 185.546 528.478 176.706 518.876 176.706C507.904 176.706 502.417 185.546 502.417 203.224V325.068C502.417 328.878 501.579 331.621 499.903 333.297C498.379 334.974 495.788 335.812 492.13 335.812H436.809C433.151 335.812 430.484 334.974 428.808 333.297C427.284 331.621 426.522 328.878 426.522 325.068Z" fill="black"/>
<path d="M331.973 325.525V112.013C331.973 108.203 332.735 105.536 334.259 104.012C335.783 102.488 338.45 101.726 342.26 101.726H397.581C401.391 101.726 404.058 102.488 405.582 104.012C407.106 105.536 407.868 108.203 407.868 112.013V325.525C407.868 329.335 407.106 332.002 405.582 333.526C404.058 335.05 401.391 335.812 397.581 335.812H342.26C338.45 335.812 335.783 335.05 334.259 333.526C332.735 332.002 331.973 329.335 331.973 325.525ZM331.973 65.6072V18.287C331.973 14.477 332.735 11.81 334.259 10.286C335.783 8.762 338.45 8 342.26 8H397.581C401.391 8 404.058 8.762 405.582 10.286C407.106 11.81 407.868 14.477 407.868 18.287V65.6072C407.868 69.4172 407.106 72.0842 405.582 73.6082C404.058 75.1322 401.391 75.8942 397.581 75.8942H342.26C338.45 75.8942 335.783 75.1322 334.259 73.6082C332.735 72.0842 331.973 69.4172 331.973 65.6072Z" fill="black"/>
<path d="M0 348.174C0 344.364 0.761999 341.697 2.286 340.173C3.81 338.649 6.477 337.887 10.287 337.887H17.3736C28.3464 337.887 35.8902 335.22 40.005 329.886C44.2722 324.552 46.4058 317.085 46.4058 307.484V112.47C46.4058 108.66 47.1678 105.917 48.6918 104.241C50.3682 102.564 53.0352 101.726 56.6928 101.726H112.014C115.672 101.726 118.262 102.564 119.786 104.241C121.463 105.917 122.301 108.66 122.301 112.47V307.484C122.301 348.327 115.367 376.826 101.498 392.98C87.63 409.287 62.865 417.44 27.2034 417.44H10.287C6.477 417.44 3.81 416.678 2.286 415.154C0.761999 413.63 0 410.963 0 407.153V348.174ZM46.4058 65.6072V18.9728C46.4058 15.1628 47.1678 12.4196 48.6918 10.7432C50.3682 8.91439 53.0352 8 56.6928 8H112.014C115.672 8 118.262 8.91439 119.786 10.7432C121.463 12.4196 122.301 15.1628 122.301 18.9728V65.6072C122.301 69.4172 121.463 72.1604 119.786 73.8368C118.262 75.5132 115.672 76.3514 112.014 76.3514H56.6928C53.0352 76.3514 50.3682 75.5132 48.6918 73.8368C47.1678 72.1604 46.4058 69.4172 46.4058 65.6072Z" fill="black"/>
<path fill-rule="evenodd" clip-rule="evenodd" d="M129.753 218.769C129.753 261.288 137.983 292.225 154.442 311.58C170.901 330.783 195.133 340.384 227.137 340.384C259.141 340.384 283.373 330.783 299.832 311.58C316.291 292.225 324.521 261.288 324.521 218.769C324.521 176.249 316.291 145.388 299.832 126.186C283.373 106.831 259.141 97.1536 227.137 97.1536C195.133 97.1536 170.901 106.831 154.442 126.186C137.983 145.388 129.753 176.249 129.753 218.769ZM257.701 189.896C254.405 185.114 249.554 181.941 243.794 180.797C236.613 179.372 228.101 181.721 223.295 186.455C219.055 190.633 217.259 195.183 217.269 201.72C217.275 206.163 218.003 209.558 219.624 212.713C220.915 215.226 220.879 215.324 218.425 216.036C215.614 216.852 211.311 217.184 208.366 216.813C205.784 216.487 201.173 215.245 199.986 214.554C199.192 214.092 195.961 209.916 195.961 209.352C195.961 208.231 194.212 206.714 192.959 206.749C188.069 206.886 184.525 213.277 183.512 223.786C182.846 230.694 183.829 236.836 186.494 242.424C192.685 255.405 205.844 262.359 224.245 262.373C242.686 262.387 255.475 255.672 259.099 244.07C260.692 238.974 260.498 233.529 258.481 226.683C257.833 224.484 257.541 222.667 257.619 221.321L257.737 219.284L260.449 219.031C262.907 218.802 266.37 218.048 268.083 217.369C268.969 217.019 269.278 215.92 268.981 214.182C268.806 213.155 268.959 212.267 269.523 211.038C270.552 208.793 270.571 206.408 269.566 205.509C268.975 204.98 268.436 204.883 267.145 205.072C266.17 205.216 264.77 205.111 263.755 204.818L262.027 204.32L261.566 200.694C260.978 196.061 259.925 193.122 257.701 189.896Z" fill="black"/>
<path fill-rule="evenodd" clip-rule="evenodd" d="M1510.58 179.817C1521.97 182.077 1531.56 188.348 1538.08 197.794C1542.47 204.17 1544.55 209.977 1545.72 219.131L1546.63 226.296L1550.05 227.28C1552.05 227.857 1554.82 228.065 1556.75 227.782C1559.3 227.408 1560.37 227.599 1561.53 228.644C1563.52 230.421 1563.48 235.133 1561.45 239.569C1560.33 241.998 1560.03 243.752 1560.38 245.781C1560.97 249.216 1560.35 251.386 1558.6 252.079C1555.22 253.419 1548.37 254.909 1543.51 255.362L1538.15 255.862L1537.91 259.886C1537.76 262.547 1538.34 266.136 1539.62 270.481C1543.61 284.007 1543.99 294.766 1540.84 304.836C1533.67 327.759 1508.39 341.028 1471.93 341C1435.55 340.972 1409.54 327.232 1397.29 301.583C1392.02 290.541 1390.08 278.406 1391.4 264.757C1393.4 243.993 1400.41 231.366 1410.08 231.094C1412.55 231.025 1416.01 234.022 1416.01 236.238C1416.01 237.352 1422.4 245.604 1423.97 246.516C1426.32 247.881 1435.43 250.336 1440.54 250.979C1446.36 251.713 1454.87 251.056 1460.42 249.444C1465.28 248.037 1465.35 247.843 1462.79 242.878C1459.59 236.645 1458.15 229.936 1458.14 221.157C1458.12 208.242 1461.67 199.251 1470.05 190.997C1479.56 181.643 1496.38 177 1510.58 179.817Z" fill="black"/>
</svg>
