<svg width="1113" height="399" viewBox="0 0 1113 399" fill="none" xmlns="http://www.w3.org/2000/svg">
<path d="M786 42.4304C788.503 41.5977 790.965 40.5959 793.408 39.6036C795.999 38.5516 798.781 37.9622 801.529 35.7619C804.092 33.7104 805.405 31.423 806.836 29.2022C808.367 26.8274 810.028 24.4051 811.182 21.8088C812.023 19.9154 812.203 17.8583 812.767 15.8833C812.951 15.2389 813.849 11.3541 813.889 13.7994C813.949 17.5058 813.987 21.1923 814.28 24.8894C814.672 29.8217 814.766 33.9495 818.038 37.9727C820.178 40.6031 824.797 41.9235 827.993 42.0861C829.482 42.1619 830.959 42.3283 832.445 42.4123C833.271 42.459 835.488 42.1616 834.903 42.7566C834.551 43.1147 831.965 42.7566 831.502 42.7566C829.073 42.7566 826.962 43.4677 824.61 43.9888C821.332 44.7151 816.398 46.5495 814.28 49.5863C811.971 52.8975 810.917 55.8239 809.436 59.5909C808.175 62.7996 807.828 66.1147 807.406 69.5031C807.352 69.9357 807.071 72.2006 806.979 71.9856C806.231 70.2462 805.801 68.1457 805.305 66.3138C804.414 63.0256 805.391 54.2763 800.21 49.025C795.935 44.6916 789.551 40.2623 786 42.4304Z" stroke="black" stroke-width="5" stroke-linecap="round" stroke-linejoin="round"/>
<path d="M153 51.5861C156.116 52.6164 159.181 53.8559 162.223 55.0837C165.447 56.3853 168.91 57.1145 172.332 59.8369C175.523 62.3753 177.157 65.2054 178.939 67.9533C180.844 70.8915 182.912 73.8886 184.349 77.101C185.396 79.4436 185.62 81.9889 186.322 84.4326C186.551 85.2298 187.669 90.0364 187.718 87.0109C187.794 82.425 187.841 77.8638 188.206 73.2894C188.694 67.1868 188.811 62.0794 192.884 57.1016C195.548 53.847 201.299 52.2133 205.277 52.0121C207.131 51.9183 208.969 51.7125 210.82 51.6085C211.848 51.5508 214.607 51.9187 213.879 51.1825C213.441 50.7394 210.222 51.1825 209.645 51.1825C206.621 51.1825 203.993 50.3027 201.065 49.6579C196.984 48.7593 190.843 46.4896 188.206 42.7322C185.331 38.6353 184.019 35.0146 182.176 30.3536C180.606 26.3836 180.174 22.2818 179.649 18.0894C179.581 17.5541 179.232 14.7517 179.116 15.0178C178.185 17.1699 177.65 19.7689 177.032 22.0355C175.924 26.104 177.139 36.9293 170.69 43.4266C165.368 48.7883 157.421 54.2687 153 51.5861Z" stroke="black" stroke-width="5" stroke-linecap="round" stroke-linejoin="round"/>
<path d="M838 22.546C839.686 23.0965 841.344 23.7586 842.989 24.4146C844.734 25.1099 846.607 25.4995 848.459 26.954C850.185 28.3101 851.069 29.8221 852.033 31.2901C853.063 32.8598 854.182 34.461 854.959 36.1772C855.526 37.4288 855.647 38.7886 856.027 40.0941C856.15 40.52 856.755 43.088 856.782 41.4716C856.823 39.0216 856.848 36.5847 857.046 34.1409C857.31 30.8806 857.373 28.152 859.577 25.4926C861.018 23.7539 864.129 22.8811 866.281 22.7736C867.284 22.7235 868.278 22.6135 869.28 22.558C869.836 22.5271 871.328 22.7237 870.935 22.3304C870.698 22.0937 868.956 22.3304 868.644 22.3304C867.008 22.3304 865.587 21.8604 864.002 21.5159C861.795 21.0358 858.472 19.8232 857.046 17.8159C855.491 15.6271 854.781 13.6927 853.784 11.2026C852.934 9.08163 852.701 6.89029 852.416 4.65051C852.38 4.36453 852.191 2.86737 852.129 3.00949C851.625 4.15928 851.335 5.54776 851.001 6.75868C850.402 8.93226 851.059 14.7157 847.57 18.1868C844.691 21.0513 840.392 23.9792 838 22.546Z" stroke="black" stroke-width="5" stroke-linecap="round" stroke-linejoin="round"/>
<path d="M927.488 195.761V125.182C927.488 120.805 928.491 117.704 930.497 115.881C932.504 113.874 935.786 112.871 940.346 112.871H954.845C959.222 112.871 962.322 111.868 964.146 109.862C966.152 107.856 967.155 104.573 967.155 100.014V13.8415C967.155 9.28209 968.067 5.99932 969.891 3.99319C971.897 1.80469 975.088 0.710449 979.465 0.710449H1045.12C1049.5 0.710449 1052.6 1.80469 1054.42 3.99319C1056.43 5.99932 1057.43 9.28209 1057.43 13.8415V100.014C1057.43 104.573 1058.34 107.856 1060.17 109.862C1062.17 111.868 1065.36 112.871 1069.74 112.871H1100.11C1104.67 112.871 1107.95 113.874 1109.95 115.881C1111.96 117.704 1112.96 120.805 1112.96 125.182V195.761C1112.96 200.138 1111.96 203.33 1109.95 205.336C1107.95 207.159 1104.67 208.071 1100.11 208.071H1069.74C1065.36 208.071 1062.17 209.074 1060.17 211.08C1058.34 213.087 1057.43 216.369 1057.43 220.929V380.142C1057.43 384.702 1056.43 387.985 1054.42 389.991C1052.6 391.997 1049.5 393 1045.12 393H979.465C975.088 393 971.897 391.997 969.891 389.991C968.067 387.985 967.155 384.702 967.155 380.142V220.929C967.155 216.369 966.152 213.087 964.146 211.08C962.322 209.074 959.222 208.071 954.845 208.071H940.346C935.786 208.071 932.504 207.159 930.497 205.336C928.491 203.33 927.488 200.138 927.488 195.761Z" fill="black"/>
<path d="M702.456 299.988V125.729C702.456 121.169 703.367 117.887 705.191 115.881C707.197 113.874 710.389 112.871 714.766 112.871H780.968C785.345 112.871 788.446 113.874 790.269 115.881C792.275 117.887 793.279 121.169 793.279 125.729V272.632C793.279 293.058 798.841 303.271 809.966 303.271C822.003 303.271 828.021 293.058 828.021 272.632V125.729C828.021 121.169 828.933 117.887 830.757 115.881C832.763 113.874 835.954 112.871 840.331 112.871H906.26C910.637 112.871 913.737 113.874 915.561 115.881C917.567 117.887 918.57 121.169 918.57 125.729V380.142C918.57 384.702 917.567 387.985 915.561 389.991C913.737 391.997 910.637 393 906.26 393H857.566C850.088 393 844.891 392.362 841.973 391.085C839.237 389.808 836.593 387.073 834.039 382.878C832.033 379.231 829.662 377.407 826.927 377.407C824.921 377.407 822.276 378.684 818.993 381.237C810.787 387.802 803.309 392.27 796.561 394.641C789.813 397.195 781.424 398.471 771.393 398.471C748.232 398.471 730.906 389.808 719.416 372.483C708.109 354.975 702.456 330.81 702.456 299.988Z" fill="black"/>
<path d="M493.289 364.002C473.592 340.841 463.744 303.818 463.744 252.936C463.744 202.053 473.592 165.122 493.289 142.143C512.986 118.981 541.983 107.4 580.282 107.4C618.581 107.4 647.579 118.981 667.275 142.143C686.972 165.122 696.82 202.053 696.82 252.936C696.82 303.818 686.972 340.841 667.275 364.002C647.579 386.982 618.581 398.471 580.282 398.471C541.983 398.471 512.986 386.982 493.289 364.002ZM563.321 214.09C560.038 221.75 558.397 234.698 558.397 252.936C558.397 271.173 560.038 284.122 563.321 291.782C566.786 299.441 572.44 303.271 580.282 303.271C588.124 303.271 593.687 299.441 596.969 291.782C600.435 284.122 602.167 271.173 602.167 252.936C602.167 234.698 600.435 221.75 596.969 214.09C593.687 206.43 588.124 202.6 580.282 202.6C572.44 202.6 566.786 206.43 563.321 214.09Z" fill="black"/>
<path d="M235.976 380.69V13.0208C235.976 8.4614 236.887 5.26983 238.711 3.44608C240.535 1.62232 243.727 0.710449 248.286 0.710449H314.488C319.048 0.710449 322.239 1.62232 324.063 3.44608C325.887 5.26983 326.799 8.4614 326.799 13.0208V116.701C326.799 121.625 328.44 124.087 331.723 124.087C334.458 124.087 338.015 122.628 342.392 119.71C355.158 111.504 367.651 107.4 379.87 107.4C436.771 107.4 465.221 155.912 465.221 252.936C465.221 276.462 463.58 296.979 460.297 314.487C457.197 331.995 453.094 346.038 447.987 356.616C442.881 367.011 436.406 375.492 428.564 382.057C420.904 388.441 413.062 392.726 405.038 394.915C397.013 397.286 388.077 398.471 378.228 398.471C363.821 398.471 349.687 392.726 335.826 381.237C332.726 378.684 330.081 377.407 327.893 377.407C324.975 377.407 322.513 379.231 320.507 382.878C317.953 387.073 315.309 389.808 312.573 391.085C309.838 392.362 304.822 393 297.527 393H248.286C243.909 393 240.717 392.088 238.711 390.264C236.887 388.258 235.976 385.067 235.976 380.69ZM331.723 211.901C328.44 219.926 326.799 233.604 326.799 252.936C326.799 272.267 328.44 286.037 331.723 294.244C335.188 302.268 340.841 306.28 348.684 306.28C356.526 306.28 362.088 302.268 365.371 294.244C368.836 286.037 370.569 272.267 370.569 252.936C370.569 233.604 368.836 219.926 365.371 211.901C362.088 203.694 356.526 199.591 348.684 199.591C340.841 199.591 335.188 203.694 331.723 211.901Z" fill="black"/>
<path d="M0 303.271C0 270.444 6.01839 246.37 18.0552 231.051C30.0919 215.731 48.3295 208.071 72.7678 208.071C89.1816 208.071 102.86 211.628 113.802 218.74C117.267 221.294 120.094 222.57 122.283 222.57C125.201 222.57 126.66 220.382 126.66 216.005C126.66 207.068 122.374 200.229 113.802 195.487C105.231 190.746 95.2911 188.375 83.9839 188.375C73.7709 188.375 60.3663 191.202 43.7701 196.855C41.0345 197.95 38.39 198.497 35.8368 198.497C31.6421 198.497 28.7241 195.396 27.0827 189.195L12.8575 137.492C12.128 134.574 11.7632 132.568 11.7632 131.474C11.7632 127.279 14.9548 124.087 21.3379 121.899C46.5057 112.233 74.1356 107.4 104.228 107.4C121.918 107.4 137.42 109.497 150.733 113.692C164.047 117.887 175.901 124.817 186.296 134.483C196.874 144.149 204.899 157.645 210.37 174.97C215.841 192.114 218.577 213.087 218.577 237.89V380.69C218.577 385.249 217.665 388.441 215.841 390.264C214.018 392.088 210.826 393 206.267 393H151.828C143.985 393 138.241 389.991 134.593 383.972C131.857 379.595 129.213 377.407 126.66 377.407C124.106 377.407 121.28 378.684 118.179 381.237C103.772 392.727 87.5402 398.471 69.485 398.471C47.0529 398.471 29.8184 390.173 17.7816 373.577C5.9272 356.981 0 333.546 0 303.271ZM113.802 278.651C102.677 278.651 97.1149 286.858 97.1149 303.271C97.1149 319.685 102.677 327.892 113.802 327.892C124.927 327.892 130.49 319.685 130.49 303.271C130.49 286.858 124.927 278.651 113.802 278.651Z" fill="black"/>
</svg>
