<svg width="974" height="254" viewBox="0 0 974 254" fill="none" xmlns="http://www.w3.org/2000/svg">
<path d="M854.086 57.876C854.086 55.3271 855.712 54.0527 858.964 54.0527H891.132C894.56 54.0527 896.977 54.4922 898.383 55.3711C899.877 56.1621 900.976 58.1396 901.679 61.3037L910.775 101.514C911.566 104.941 912.753 106.655 914.335 106.655C915.829 106.655 916.972 104.941 917.763 101.514L926.464 61.3037C927.255 58.1396 928.266 56.1621 929.496 55.3711C930.727 54.4922 932.968 54.0527 936.22 54.0527H968.915C972.255 54.0527 973.925 55.3271 973.925 57.876C973.925 58.2275 973.661 59.458 973.134 61.5674L920.268 246.533C919.389 249.785 918.334 251.807 917.104 252.598C915.961 253.477 913.764 253.916 910.512 253.916H880.849C877.421 253.916 875.707 252.642 875.707 250.093C875.707 249.653 875.971 248.379 876.498 246.27L888.891 206.323C889.242 205.356 889.594 204.214 889.945 202.896C890.385 201.577 890.736 200.566 891 199.863C891.264 199.16 891.483 198.413 891.659 197.622C891.835 196.919 891.923 196.304 891.923 195.776C891.923 193.491 891.483 190.811 890.604 187.734L854.877 61.5674C854.35 59.458 854.086 58.2275 854.086 57.876Z" fill="black"/>
<path d="M750.516 144.229V60.249C750.516 58.0518 750.955 56.4697 751.834 55.5029C752.801 54.5361 754.339 54.0527 756.448 54.0527H788.353C790.462 54.0527 791.956 54.5361 792.835 55.5029C793.802 56.4697 794.285 58.0518 794.285 60.249V131.045C794.285 140.889 796.966 145.811 802.327 145.811C808.128 145.811 811.028 140.889 811.028 131.045V60.249C811.028 58.0518 811.468 56.4697 812.347 55.5029C813.313 54.5361 814.852 54.0527 816.961 54.0527H848.733C850.843 54.0527 852.337 54.5361 853.216 55.5029C854.183 56.4697 854.666 58.0518 854.666 60.249V182.856C854.666 185.054 854.183 186.636 853.216 187.603C852.337 188.569 850.843 189.053 848.733 189.053H825.267C821.663 189.053 819.158 188.745 817.752 188.13C816.434 187.515 815.159 186.196 813.929 184.175C812.962 182.417 811.819 181.538 810.501 181.538C809.534 181.538 808.26 182.153 806.678 183.384C802.723 186.548 799.119 188.701 795.867 189.844C792.615 191.074 788.572 191.689 783.738 191.689C772.576 191.689 764.227 187.515 758.689 179.165C753.24 170.728 750.516 159.082 750.516 144.229Z" fill="black"/>
<path d="M635.871 183.12V5.93262C635.871 3.73535 636.311 2.19727 637.189 1.31836C638.068 0.439453 639.606 0 641.804 0H673.708C675.905 0 677.443 0.439453 678.322 1.31836C679.201 2.19727 679.641 3.73535 679.641 5.93262V55.8984C679.641 58.2715 680.432 59.458 682.014 59.458C683.332 59.458 685.046 58.7549 687.155 57.3486C693.308 53.3936 699.328 51.416 705.217 51.416C732.639 51.416 746.35 74.7949 746.35 121.553C746.35 132.891 745.559 142.778 743.977 151.216C742.482 159.653 740.505 166.421 738.044 171.519C735.583 176.528 732.463 180.615 728.684 183.779C724.992 186.855 721.213 188.921 717.346 189.976C713.479 191.118 709.172 191.689 704.426 191.689C697.482 191.689 690.671 188.921 683.991 183.384C682.497 182.153 681.223 181.538 680.168 181.538C678.762 181.538 677.575 182.417 676.608 184.175C675.378 186.196 674.104 187.515 672.785 188.13C671.467 188.745 669.05 189.053 665.534 189.053H641.804C639.694 189.053 638.156 188.613 637.189 187.734C636.311 186.768 635.871 185.229 635.871 183.12ZM682.014 101.777C680.432 105.645 679.641 112.236 679.641 121.553C679.641 130.869 680.432 137.505 682.014 141.46C683.684 145.327 686.408 147.261 690.188 147.261C693.967 147.261 696.647 145.327 698.229 141.46C699.899 137.505 700.734 130.869 700.734 121.553C700.734 112.236 699.899 105.645 698.229 101.777C696.647 97.8223 693.967 95.8447 690.188 95.8447C686.408 95.8447 683.684 97.8223 682.014 101.777Z" fill="black"/>
<path d="M407.558 93.999V59.9854C407.558 57.876 408.041 56.3818 409.008 55.5029C409.975 54.5361 411.557 54.0527 413.754 54.0527H420.741C422.851 54.0527 424.345 53.5693 425.224 52.6025C426.19 51.6357 426.674 50.0537 426.674 47.8564V6.32812C426.674 4.13086 427.113 2.54883 427.992 1.58203C428.959 0.527344 430.497 0 432.606 0H464.247C466.356 0 467.851 0.527344 468.729 1.58203C469.696 2.54883 470.18 4.13086 470.18 6.32812V47.8564C470.18 50.0537 470.619 51.6357 471.498 52.6025C472.465 53.5693 474.003 54.0527 476.112 54.0527H490.746C492.943 54.0527 494.525 54.5361 495.492 55.5029C496.459 56.3818 496.942 57.876 496.942 59.9854V93.999C496.942 96.1084 496.459 97.6465 495.492 98.6133C494.525 99.4922 492.943 99.9316 490.746 99.9316H476.112C474.003 99.9316 472.465 100.415 471.498 101.382C470.619 102.349 470.18 103.931 470.18 106.128V182.856C470.18 185.054 469.696 186.636 468.729 187.603C467.851 188.569 466.356 189.053 464.247 189.053H432.606C430.497 189.053 428.959 188.569 427.992 187.603C427.113 186.636 426.674 185.054 426.674 182.856V106.128C426.674 103.931 426.19 102.349 425.224 101.382C424.345 100.415 422.851 99.9316 420.741 99.9316H413.754C411.557 99.9316 409.975 99.4922 409.008 98.6133C408.041 97.6465 407.558 96.1084 407.558 93.999Z" fill="black"/>
<path d="M212.15 58.4033C212.15 55.5029 213.864 54.0527 217.292 54.0527H248.142C251.481 54.0527 253.767 54.4922 254.997 55.3711C256.228 56.1621 257.238 58.1396 258.029 61.3037L265.939 94.2627C266.73 97.6904 267.873 99.4043 269.367 99.4043C270.246 99.4043 270.905 99.0527 271.345 98.3496C271.784 97.5586 272.312 96.1963 272.927 94.2627L283.21 59.1943C284.265 55.7666 286.682 54.0527 290.461 54.0527H308.259C312.126 54.0527 314.587 55.7666 315.642 59.1943L325.793 94.2627C326.408 96.1963 326.936 97.5586 327.375 98.3496C327.814 99.0527 328.474 99.4043 329.353 99.4043C330.935 99.4043 332.121 97.6904 332.912 94.2627L340.69 61.3037C341.481 58.1396 342.492 56.1621 343.723 55.3711C345.041 54.4922 347.37 54.0527 350.71 54.0527H381.428C384.855 54.0527 386.569 55.5029 386.569 58.4033C386.569 59.1064 386.394 60.1611 386.042 61.5674L356.115 181.802C355.412 184.79 354.182 186.768 352.424 187.734C350.666 188.613 348.029 189.053 344.514 189.053H325.793C322.277 189.053 319.641 188.613 317.883 187.734C316.125 186.768 314.895 184.79 314.191 181.802L302.854 136.978C302.062 133.55 300.92 131.836 299.426 131.836C297.844 131.836 296.657 133.55 295.866 136.978L284.528 181.802C283.825 184.79 282.595 186.768 280.837 187.734C279.079 188.613 276.442 189.053 272.927 189.053H254.338C250.822 189.053 248.186 188.613 246.428 187.734C244.67 186.768 243.439 184.79 242.736 181.802L212.678 61.5674C212.326 60.1611 212.15 59.1064 212.15 58.4033Z" fill="black"/>
<path d="M0 182.856V6.32812C0 4.13086 0.439453 2.54883 1.31836 1.58203C2.28516 0.527344 3.82324 0 5.93262 0H37.8369C40.0342 0 41.5723 0.483398 42.4512 1.4502C43.3301 2.41699 43.7695 4.04297 43.7695 6.32812V55.8984C43.7695 58.2715 44.5605 59.458 46.1426 59.458C47.6367 59.458 49.3506 58.7549 51.2842 57.3486C57.2607 53.3936 64.2041 51.416 72.1143 51.416C83.0127 51.416 91.2744 55.6348 96.8994 64.0723C102.524 72.5098 105.337 84.1113 105.337 98.877V182.856C105.337 185.054 104.854 186.636 103.887 187.603C103.008 188.569 101.514 189.053 99.4043 189.053H67.5C65.3906 189.053 63.8525 188.569 62.8857 187.603C62.0068 186.636 61.5674 185.054 61.5674 182.856V112.588C61.5674 102.393 58.7988 97.2949 53.2617 97.2949C46.9336 97.2949 43.7695 102.393 43.7695 112.588V182.856C43.7695 185.054 43.2861 186.636 42.3193 187.603C41.4404 188.569 39.9463 189.053 37.8369 189.053H5.93262C3.82324 189.053 2.28516 188.569 1.31836 187.603C0.439453 186.636 0 185.054 0 182.856Z" fill="black"/>
<path fill-rule="evenodd" clip-rule="evenodd" d="M107.921 121.553C107.921 146.074 112.667 163.916 122.159 175.078C131.651 186.152 145.626 191.689 164.083 191.689C182.54 191.689 196.515 186.152 206.007 175.078C215.499 163.916 220.245 146.074 220.245 121.553C220.245 97.0312 215.499 79.2334 206.007 68.1592C196.515 56.9971 182.54 51.416 164.083 51.416C145.626 51.416 131.651 56.9971 122.159 68.1592C112.667 79.2334 107.921 97.0312 107.921 121.553ZM182.465 101.801C180.495 98.8851 177.595 96.9495 174.152 96.2523C169.86 95.3829 164.772 96.8157 161.9 99.7029C159.366 102.25 158.292 105.025 158.298 109.011C158.302 111.721 158.736 113.792 159.705 115.715C160.477 117.248 160.456 117.308 158.989 117.742C157.309 118.239 154.737 118.442 152.976 118.216C151.433 118.017 148.677 117.26 147.967 116.838C147.493 116.557 145.561 114.01 145.561 113.666C145.561 112.982 144.516 112.057 143.767 112.078C140.844 112.162 138.726 116.06 138.12 122.468C137.722 126.681 138.31 130.426 139.903 133.834C143.604 141.751 151.469 145.991 162.467 146C173.49 146.009 181.134 141.913 183.301 134.838C184.253 131.73 184.137 128.41 182.931 124.235C182.544 122.894 182.37 121.786 182.416 120.965L182.487 119.723L184.107 119.569C185.577 119.429 187.647 118.969 188.671 118.555C189.2 118.341 189.385 117.672 189.207 116.612C189.102 115.985 189.194 115.444 189.531 114.694C190.146 113.325 190.157 111.871 189.557 111.322C189.204 111 188.882 110.941 188.11 111.056C187.527 111.143 186.69 111.079 186.084 110.901L185.051 110.598L184.775 108.386C184.423 105.561 183.794 103.769 182.465 101.801Z" fill="black"/>
<path fill-rule="evenodd" clip-rule="evenodd" d="M492.144 121.553C492.144 146.074 496.89 163.916 506.382 175.078C515.874 186.152 529.849 191.689 548.306 191.689C566.763 191.689 580.737 186.152 590.229 175.078C599.722 163.916 604.468 146.074 604.468 121.553C604.468 97.0312 599.722 79.2334 590.229 68.1592C580.737 56.9971 566.763 51.416 548.306 51.416C529.849 51.416 515.874 56.9971 506.382 68.1592C496.89 79.2334 492.144 97.0312 492.144 121.553ZM566.465 101.801C564.495 98.8851 561.595 96.9495 558.152 96.2523C553.86 95.3829 548.772 96.8157 545.9 99.7029C543.366 102.25 542.292 105.025 542.298 109.011C542.302 111.721 542.736 113.792 543.705 115.715C544.477 117.248 544.456 117.308 542.989 117.742C541.309 118.239 538.737 118.442 536.976 118.216C535.433 118.017 532.677 117.26 531.967 116.838C531.493 116.557 529.561 114.01 529.561 113.666C529.561 112.982 528.516 112.057 527.767 112.078C524.844 112.162 522.726 116.06 522.12 122.468C521.722 126.681 522.31 130.426 523.903 133.834C527.604 141.751 535.469 145.991 546.467 146C557.49 146.009 565.134 141.913 567.301 134.838C568.253 131.73 568.137 128.41 566.931 124.235C566.544 122.894 566.37 121.786 566.416 120.965L566.487 119.723L568.107 119.569C569.577 119.429 571.647 118.969 572.671 118.555C573.2 118.341 573.385 117.672 573.207 116.612C573.102 115.985 573.194 115.444 573.531 114.694C574.146 113.325 574.157 111.871 573.557 111.322C573.204 111 572.882 110.941 572.11 111.056C571.527 111.143 570.69 111.079 570.084 110.901L569.051 110.598L568.775 108.386C568.423 105.561 567.794 103.769 566.465 101.801Z" fill="black"/>
</svg>
